%TF.GenerationSoftware,KiCad,Pcbnew,9.0.2+dfsg-1*%
%TF.CreationDate,2025-07-19T12:09:05+01:00*%
%TF.ProjectId,makita_aws_rx,6d616b69-7461-45f6-9177-735f72782e6b,rev?*%
%TF.SameCoordinates,Original*%
%TF.FileFunction,Soldermask,Top*%
%TF.FilePolarity,Negative*%
%FSLAX46Y46*%
G04 Gerber Fmt 4.6, Leading zero omitted, Abs format (unit mm)*
G04 Created by KiCad (PCBNEW 9.0.2+dfsg-1) date 2025-07-19 12:09:05*
%MOMM*%
%LPD*%
G01*
G04 APERTURE LIST*
G04 Aperture macros list*
%AMRoundRect*
0 Rectangle with rounded corners*
0 $1 Rounding radius*
0 $2 $3 $4 $5 $6 $7 $8 $9 X,Y pos of 4 corners*
0 Add a 4 corners polygon primitive as box body*
4,1,4,$2,$3,$4,$5,$6,$7,$8,$9,$2,$3,0*
0 Add four circle primitives for the rounded corners*
1,1,$1+$1,$2,$3*
1,1,$1+$1,$4,$5*
1,1,$1+$1,$6,$7*
1,1,$1+$1,$8,$9*
0 Add four rect primitives between the rounded corners*
20,1,$1+$1,$2,$3,$4,$5,0*
20,1,$1+$1,$4,$5,$6,$7,0*
20,1,$1+$1,$6,$7,$8,$9,0*
20,1,$1+$1,$8,$9,$2,$3,0*%
%AMFreePoly0*
4,1,37,0.603843,0.796157,0.639018,0.796157,0.711114,0.766294,0.766294,0.711114,0.796157,0.639018,0.796157,0.603843,0.800000,0.600000,0.800000,-0.600000,0.796157,-0.603843,0.796157,-0.639018,0.766294,-0.711114,0.711114,-0.766294,0.639018,-0.796157,0.603843,-0.796157,0.600000,-0.800000,0.000000,-0.800000,0.000000,-0.796148,-0.078414,-0.796148,-0.232228,-0.765552,-0.377117,-0.705537,
-0.507515,-0.618408,-0.618408,-0.507515,-0.705537,-0.377117,-0.765552,-0.232228,-0.796148,-0.078414,-0.796148,0.078414,-0.765552,0.232228,-0.705537,0.377117,-0.618408,0.507515,-0.507515,0.618408,-0.377117,0.705537,-0.232228,0.765552,-0.078414,0.796148,0.000000,0.796148,0.000000,0.800000,0.600000,0.800000,0.603843,0.796157,0.603843,0.796157,$1*%
%AMFreePoly1*
4,1,37,0.000000,0.796148,0.078414,0.796148,0.232228,0.765552,0.377117,0.705537,0.507515,0.618408,0.618408,0.507515,0.705537,0.377117,0.765552,0.232228,0.796148,0.078414,0.796148,-0.078414,0.765552,-0.232228,0.705537,-0.377117,0.618408,-0.507515,0.507515,-0.618408,0.377117,-0.705537,0.232228,-0.765552,0.078414,-0.796148,0.000000,-0.796148,0.000000,-0.800000,-0.600000,-0.800000,
-0.603843,-0.796157,-0.639018,-0.796157,-0.711114,-0.766294,-0.766294,-0.711114,-0.796157,-0.639018,-0.796157,-0.603843,-0.800000,-0.600000,-0.800000,0.600000,-0.796157,0.603843,-0.796157,0.639018,-0.766294,0.711114,-0.711114,0.766294,-0.639018,0.796157,-0.603843,0.796157,-0.600000,0.800000,0.000000,0.800000,0.000000,0.796148,0.000000,0.796148,$1*%
G04 Aperture macros list end*
%ADD10RoundRect,0.250000X0.825000X0.825000X-0.825000X0.825000X-0.825000X-0.825000X0.825000X-0.825000X0*%
%ADD11C,2.150000*%
%ADD12C,1.600000*%
%ADD13C,3.500000*%
%ADD14R,1.050000X1.500000*%
%ADD15O,1.050000X1.500000*%
%ADD16RoundRect,0.250001X-1.149999X-1.149999X1.149999X-1.149999X1.149999X1.149999X-1.149999X1.149999X0*%
%ADD17C,2.800000*%
%ADD18RoundRect,0.250000X-0.825000X-0.825000X0.825000X-0.825000X0.825000X0.825000X-0.825000X0.825000X0*%
%ADD19RoundRect,0.200000X0.600000X0.600000X-0.600000X0.600000X-0.600000X-0.600000X0.600000X-0.600000X0*%
%ADD20FreePoly0,180.000000*%
%ADD21FreePoly1,180.000000*%
%ADD22R,2.500000X2.500000*%
%ADD23O,2.500000X2.500000*%
%ADD24R,2.000000X1.700000*%
%ADD25O,2.000000X1.700000*%
%ADD26C,2.000000*%
G04 APERTURE END LIST*
D10*
%TO.C,D1*%
X198000000Y-55500000D03*
D11*
X193400000Y-55500000D03*
%TD*%
D12*
%TO.C,R2*%
X198500000Y-70500000D03*
X198500000Y-62880000D03*
%TD*%
D13*
%TO.C,H2*%
X230500000Y-56000000D03*
%TD*%
D14*
%TO.C,Q1*%
X213460000Y-58000000D03*
D15*
X214730000Y-58000000D03*
X216000000Y-58000000D03*
%TD*%
D16*
%TO.C,J1*%
X194500000Y-109000000D03*
D17*
X199500000Y-109000000D03*
X204500000Y-109000000D03*
%TD*%
D12*
%TO.C,R3*%
X202000000Y-70500000D03*
X202000000Y-62880000D03*
%TD*%
%TO.C,R4*%
X205500000Y-62880000D03*
X205500000Y-70500000D03*
%TD*%
D18*
%TO.C,SW1*%
X202200000Y-55500000D03*
D11*
X206800000Y-55500000D03*
%TD*%
D19*
%TO.C,A1*%
X188280000Y-103940000D03*
D12*
X188280000Y-101400000D03*
D20*
X188280000Y-98860000D03*
D12*
X188280000Y-96320000D03*
X188280000Y-93780000D03*
X188280000Y-91240000D03*
X188280000Y-88700000D03*
D20*
X188280000Y-86160000D03*
D12*
X188280000Y-83620000D03*
X188280000Y-81080000D03*
X188280000Y-78540000D03*
X188280000Y-76000000D03*
D20*
X188280000Y-73460000D03*
D12*
X188280000Y-70920000D03*
X188280000Y-68380000D03*
X188280000Y-65840000D03*
X188280000Y-63300000D03*
D20*
X188280000Y-60760000D03*
D12*
X188280000Y-58220000D03*
X188280000Y-55680000D03*
X170500000Y-55680000D03*
X170500000Y-58220000D03*
D21*
X170500000Y-60760000D03*
D12*
X170500000Y-63300000D03*
X170500000Y-65840000D03*
X170500000Y-68380000D03*
X170500000Y-70920000D03*
D21*
X170500000Y-73460000D03*
D12*
X170500000Y-76000000D03*
X170500000Y-78540000D03*
X170500000Y-81080000D03*
X170500000Y-83620000D03*
D21*
X170500000Y-86160000D03*
D12*
X170500000Y-88700000D03*
X170500000Y-91240000D03*
X170500000Y-93780000D03*
X170500000Y-96320000D03*
D21*
X170500000Y-98860000D03*
D12*
X170500000Y-101400000D03*
X170500000Y-103940000D03*
%TD*%
D13*
%TO.C,H1*%
X163500000Y-56000000D03*
%TD*%
D22*
%TO.C,K2*%
X200500000Y-94700000D03*
D23*
X206500000Y-92700000D03*
X206500000Y-80500000D03*
X194500000Y-80500000D03*
X194500000Y-92700000D03*
%TD*%
D24*
%TO.C,PS1*%
X219500000Y-97000000D03*
D25*
X224500000Y-97000000D03*
X214500000Y-67920000D03*
X229500000Y-67920000D03*
%TD*%
D13*
%TO.C,H4*%
X230500000Y-113000000D03*
%TD*%
%TO.C,H3*%
X163500000Y-113000000D03*
%TD*%
D12*
%TO.C,R1*%
X195000000Y-62880000D03*
X195000000Y-70500000D03*
%TD*%
D16*
%TO.C,J2*%
X211500000Y-109000000D03*
D17*
X216500000Y-109000000D03*
X221500000Y-109000000D03*
%TD*%
D26*
%TO.C,SW3*%
X166000000Y-73000000D03*
X166000000Y-79500000D03*
X161500000Y-73000000D03*
X161500000Y-79500000D03*
%TD*%
M02*
