%TF.GenerationSoftware,KiCad,Pcbnew,9.0.2+dfsg-1*%
%TF.CreationDate,2025-07-19T12:09:05+01:00*%
%TF.ProjectId,makita_aws_rx,6d616b69-7461-45f6-9177-735f72782e6b,rev?*%
%TF.SameCoordinates,Original*%
%TF.FileFunction,Copper,L2,Bot*%
%TF.FilePolarity,Positive*%
%FSLAX46Y46*%
G04 Gerber Fmt 4.6, Leading zero omitted, Abs format (unit mm)*
G04 Created by KiCad (PCBNEW 9.0.2+dfsg-1) date 2025-07-19 12:09:05*
%MOMM*%
%LPD*%
G01*
G04 APERTURE LIST*
G04 Aperture macros list*
%AMRoundRect*
0 Rectangle with rounded corners*
0 $1 Rounding radius*
0 $2 $3 $4 $5 $6 $7 $8 $9 X,Y pos of 4 corners*
0 Add a 4 corners polygon primitive as box body*
4,1,4,$2,$3,$4,$5,$6,$7,$8,$9,$2,$3,0*
0 Add four circle primitives for the rounded corners*
1,1,$1+$1,$2,$3*
1,1,$1+$1,$4,$5*
1,1,$1+$1,$6,$7*
1,1,$1+$1,$8,$9*
0 Add four rect primitives between the rounded corners*
20,1,$1+$1,$2,$3,$4,$5,0*
20,1,$1+$1,$4,$5,$6,$7,0*
20,1,$1+$1,$6,$7,$8,$9,0*
20,1,$1+$1,$8,$9,$2,$3,0*%
%AMFreePoly0*
4,1,37,0.603843,0.796157,0.639018,0.796157,0.711114,0.766294,0.766294,0.711114,0.796157,0.639018,0.796157,0.603843,0.800000,0.600000,0.800000,-0.600000,0.796157,-0.603843,0.796157,-0.639018,0.766294,-0.711114,0.711114,-0.766294,0.639018,-0.796157,0.603843,-0.796157,0.600000,-0.800000,0.000000,-0.800000,0.000000,-0.796148,-0.078414,-0.796148,-0.232228,-0.765552,-0.377117,-0.705537,
-0.507515,-0.618408,-0.618408,-0.507515,-0.705537,-0.377117,-0.765552,-0.232228,-0.796148,-0.078414,-0.796148,0.078414,-0.765552,0.232228,-0.705537,0.377117,-0.618408,0.507515,-0.507515,0.618408,-0.377117,0.705537,-0.232228,0.765552,-0.078414,0.796148,0.000000,0.796148,0.000000,0.800000,0.600000,0.800000,0.603843,0.796157,0.603843,0.796157,$1*%
%AMFreePoly1*
4,1,37,0.000000,0.796148,0.078414,0.796148,0.232228,0.765552,0.377117,0.705537,0.507515,0.618408,0.618408,0.507515,0.705537,0.377117,0.765552,0.232228,0.796148,0.078414,0.796148,-0.078414,0.765552,-0.232228,0.705537,-0.377117,0.618408,-0.507515,0.507515,-0.618408,0.377117,-0.705537,0.232228,-0.765552,0.078414,-0.796148,0.000000,-0.796148,0.000000,-0.800000,-0.600000,-0.800000,
-0.603843,-0.796157,-0.639018,-0.796157,-0.711114,-0.766294,-0.766294,-0.711114,-0.796157,-0.639018,-0.796157,-0.603843,-0.800000,-0.600000,-0.800000,0.600000,-0.796157,0.603843,-0.796157,0.639018,-0.766294,0.711114,-0.711114,0.766294,-0.639018,0.796157,-0.603843,0.796157,-0.600000,0.800000,0.000000,0.800000,0.000000,0.796148,0.000000,0.796148,$1*%
G04 Aperture macros list end*
%TA.AperFunction,ComponentPad*%
%ADD10RoundRect,0.250000X0.825000X0.825000X-0.825000X0.825000X-0.825000X-0.825000X0.825000X-0.825000X0*%
%TD*%
%TA.AperFunction,ComponentPad*%
%ADD11C,2.150000*%
%TD*%
%TA.AperFunction,ComponentPad*%
%ADD12C,1.600000*%
%TD*%
%TA.AperFunction,ComponentPad*%
%ADD13R,1.050000X1.500000*%
%TD*%
%TA.AperFunction,ComponentPad*%
%ADD14O,1.050000X1.500000*%
%TD*%
%TA.AperFunction,ComponentPad*%
%ADD15RoundRect,0.250001X-1.149999X-1.149999X1.149999X-1.149999X1.149999X1.149999X-1.149999X1.149999X0*%
%TD*%
%TA.AperFunction,ComponentPad*%
%ADD16C,2.800000*%
%TD*%
%TA.AperFunction,ComponentPad*%
%ADD17RoundRect,0.250000X-0.825000X-0.825000X0.825000X-0.825000X0.825000X0.825000X-0.825000X0.825000X0*%
%TD*%
%TA.AperFunction,ComponentPad*%
%ADD18RoundRect,0.200000X0.600000X0.600000X-0.600000X0.600000X-0.600000X-0.600000X0.600000X-0.600000X0*%
%TD*%
%TA.AperFunction,ComponentPad*%
%ADD19FreePoly0,180.000000*%
%TD*%
%TA.AperFunction,ComponentPad*%
%ADD20FreePoly1,180.000000*%
%TD*%
%TA.AperFunction,ComponentPad*%
%ADD21R,2.500000X2.500000*%
%TD*%
%TA.AperFunction,ComponentPad*%
%ADD22O,2.500000X2.500000*%
%TD*%
%TA.AperFunction,ComponentPad*%
%ADD23R,2.000000X1.700000*%
%TD*%
%TA.AperFunction,ComponentPad*%
%ADD24O,2.000000X1.700000*%
%TD*%
%TA.AperFunction,ComponentPad*%
%ADD25C,2.000000*%
%TD*%
%TA.AperFunction,Conductor*%
%ADD26C,1.000000*%
%TD*%
%TA.AperFunction,Conductor*%
%ADD27C,4.000000*%
%TD*%
G04 APERTURE END LIST*
D10*
%TO.P,D1,1,K*%
%TO.N,Net-(D1-K)*%
X198000000Y-55500000D03*
D11*
%TO.P,D1,2,A*%
%TO.N,/LED*%
X193400000Y-55500000D03*
%TD*%
D12*
%TO.P,R2,1*%
%TO.N,/COIL*%
X198500000Y-70500000D03*
%TO.P,R2,2*%
%TO.N,Net-(Q1-G)*%
X198500000Y-62880000D03*
%TD*%
D13*
%TO.P,Q1,1,S*%
%TO.N,GND*%
X213460000Y-58000000D03*
D14*
%TO.P,Q1,2,G*%
%TO.N,Net-(Q1-G)*%
X214730000Y-58000000D03*
%TO.P,Q1,3,D*%
%TO.N,Net-(Q1-D)*%
X216000000Y-58000000D03*
%TD*%
D15*
%TO.P,J1,1,Pin_1*%
%TO.N,/MAINS_N*%
X194500000Y-109000000D03*
D16*
%TO.P,J1,2,Pin_2*%
%TO.N,/MAINS_E*%
X199500000Y-109000000D03*
%TO.P,J1,3,Pin_3*%
%TO.N,/MAINS_L_IN*%
X204500000Y-109000000D03*
%TD*%
D12*
%TO.P,R3,1*%
%TO.N,GND*%
X202000000Y-70500000D03*
%TO.P,R3,2*%
%TO.N,Net-(Q1-G)*%
X202000000Y-62880000D03*
%TD*%
%TO.P,R4,1*%
%TO.N,Net-(D1-K)*%
X205500000Y-62880000D03*
%TO.P,R4,2*%
%TO.N,GND*%
X205500000Y-70500000D03*
%TD*%
D17*
%TO.P,SW1,1,1*%
%TO.N,GND*%
X202200000Y-55500000D03*
D11*
%TO.P,SW1,2,2*%
%TO.N,/SW_PUSH*%
X206800000Y-55500000D03*
%TD*%
D18*
%TO.P,A1,1,GPIO0*%
%TO.N,unconnected-(A1-GPIO0-Pad1)*%
X188280000Y-103940000D03*
D12*
%TO.P,A1,2,GPIO1*%
%TO.N,unconnected-(A1-GPIO1-Pad2)*%
X188280000Y-101400000D03*
D19*
%TO.P,A1,3,GND*%
%TO.N,GND*%
X188280000Y-98860000D03*
D12*
%TO.P,A1,4,GPIO2*%
%TO.N,unconnected-(A1-GPIO2-Pad4)*%
X188280000Y-96320000D03*
%TO.P,A1,5,GPIO3*%
%TO.N,unconnected-(A1-GPIO3-Pad5)*%
X188280000Y-93780000D03*
%TO.P,A1,6,GPIO4*%
%TO.N,unconnected-(A1-GPIO4-Pad6)*%
X188280000Y-91240000D03*
%TO.P,A1,7,GPIO5*%
%TO.N,unconnected-(A1-GPIO5-Pad7)*%
X188280000Y-88700000D03*
D19*
%TO.P,A1,8,GND*%
%TO.N,GND*%
X188280000Y-86160000D03*
D12*
%TO.P,A1,9,GPIO6*%
%TO.N,unconnected-(A1-GPIO6-Pad9)*%
X188280000Y-83620000D03*
%TO.P,A1,10,GPIO7*%
%TO.N,unconnected-(A1-GPIO7-Pad10)*%
X188280000Y-81080000D03*
%TO.P,A1,11,GPIO8*%
%TO.N,unconnected-(A1-GPIO8-Pad11)*%
X188280000Y-78540000D03*
%TO.P,A1,12,GPIO9*%
%TO.N,unconnected-(A1-GPIO9-Pad12)*%
X188280000Y-76000000D03*
D19*
%TO.P,A1,13,GND*%
%TO.N,GND*%
X188280000Y-73460000D03*
D12*
%TO.P,A1,14,GPIO10*%
%TO.N,/COIL*%
X188280000Y-70920000D03*
%TO.P,A1,15,GPIO11*%
%TO.N,unconnected-(A1-GPIO11-Pad15)*%
X188280000Y-68380000D03*
%TO.P,A1,16,GPIO12*%
%TO.N,unconnected-(A1-GPIO12-Pad16)*%
X188280000Y-65840000D03*
%TO.P,A1,17,GPIO13*%
%TO.N,unconnected-(A1-GPIO13-Pad17)*%
X188280000Y-63300000D03*
D19*
%TO.P,A1,18,GND*%
%TO.N,GND*%
X188280000Y-60760000D03*
D12*
%TO.P,A1,19,GPIO14*%
%TO.N,/SW_PUSH*%
X188280000Y-58220000D03*
%TO.P,A1,20,GPIO15*%
%TO.N,/LED*%
X188280000Y-55680000D03*
%TO.P,A1,21,GPIO16*%
%TO.N,unconnected-(A1-GPIO16-Pad21)*%
X170500000Y-55680000D03*
%TO.P,A1,22,GPIO17*%
%TO.N,unconnected-(A1-GPIO17-Pad22)*%
X170500000Y-58220000D03*
D20*
%TO.P,A1,23,GND*%
%TO.N,GND*%
X170500000Y-60760000D03*
D12*
%TO.P,A1,24,GPIO18*%
%TO.N,unconnected-(A1-GPIO18-Pad24)*%
X170500000Y-63300000D03*
%TO.P,A1,25,GPIO19*%
%TO.N,unconnected-(A1-GPIO19-Pad25)*%
X170500000Y-65840000D03*
%TO.P,A1,26,GPIO20*%
%TO.N,unconnected-(A1-GPIO20-Pad26)*%
X170500000Y-68380000D03*
%TO.P,A1,27,GPIO21*%
%TO.N,unconnected-(A1-GPIO21-Pad27)*%
X170500000Y-70920000D03*
D20*
%TO.P,A1,28,GND*%
%TO.N,GND*%
X170500000Y-73460000D03*
D12*
%TO.P,A1,29,GPIO22*%
%TO.N,unconnected-(A1-GPIO22-Pad29)*%
X170500000Y-76000000D03*
%TO.P,A1,30,RUN*%
%TO.N,/RUN*%
X170500000Y-78540000D03*
%TO.P,A1,31,GPIO26_ADC0*%
%TO.N,unconnected-(A1-GPIO26_ADC0-Pad31)*%
X170500000Y-81080000D03*
%TO.P,A1,32,GPIO27_ADC1*%
%TO.N,unconnected-(A1-GPIO27_ADC1-Pad32)*%
X170500000Y-83620000D03*
D20*
%TO.P,A1,33,AGND*%
%TO.N,GND*%
X170500000Y-86160000D03*
D12*
%TO.P,A1,34,GPIO28_ADC2*%
%TO.N,unconnected-(A1-GPIO28_ADC2-Pad34)*%
X170500000Y-88700000D03*
%TO.P,A1,35,ADC_VREF*%
%TO.N,unconnected-(A1-ADC_VREF-Pad35)*%
X170500000Y-91240000D03*
%TO.P,A1,36,3V3*%
%TO.N,unconnected-(A1-3V3-Pad36)*%
X170500000Y-93780000D03*
%TO.P,A1,37,3V3_EN*%
%TO.N,unconnected-(A1-3V3_EN-Pad37)*%
X170500000Y-96320000D03*
D20*
%TO.P,A1,38,GND*%
%TO.N,GND*%
X170500000Y-98860000D03*
D12*
%TO.P,A1,39,VSYS*%
%TO.N,+5V*%
X170500000Y-101400000D03*
%TO.P,A1,40,VBUS*%
%TO.N,unconnected-(A1-VBUS-Pad40)*%
X170500000Y-103940000D03*
%TD*%
D21*
%TO.P,K2,1*%
%TO.N,/MAINS_L_OUT*%
X200500000Y-94700000D03*
D22*
%TO.P,K2,2*%
%TO.N,Net-(Q1-D)*%
X206500000Y-92700000D03*
%TO.P,K2,3*%
%TO.N,/MAINS_L_IN*%
X206500000Y-80500000D03*
%TO.P,K2,4*%
%TO.N,unconnected-(K2-Pad4)*%
X194500000Y-80500000D03*
%TO.P,K2,5*%
%TO.N,+5V*%
X194500000Y-92700000D03*
%TD*%
D23*
%TO.P,PS1,1,AC/L*%
%TO.N,/MAINS_L_IN*%
X219500000Y-97000000D03*
D24*
%TO.P,PS1,2,AC/N*%
%TO.N,/MAINS_N*%
X224500000Y-97000000D03*
%TO.P,PS1,3,-Vout*%
%TO.N,GND*%
X214500000Y-67920000D03*
%TO.P,PS1,4,+Vout*%
%TO.N,+5V*%
X229500000Y-67920000D03*
%TD*%
D12*
%TO.P,R1,1*%
%TO.N,+5V*%
X195000000Y-62880000D03*
%TO.P,R1,2*%
%TO.N,/SW_PUSH*%
X195000000Y-70500000D03*
%TD*%
D15*
%TO.P,J2,1,Pin_1*%
%TO.N,/MAINS_N*%
X211500000Y-109000000D03*
D16*
%TO.P,J2,2,Pin_2*%
%TO.N,/MAINS_E*%
X216500000Y-109000000D03*
%TO.P,J2,3,Pin_3*%
%TO.N,/MAINS_L_OUT*%
X221500000Y-109000000D03*
%TD*%
D25*
%TO.P,SW3,1,1*%
%TO.N,GND*%
X166000000Y-73000000D03*
X166000000Y-79500000D03*
%TO.P,SW3,2,2*%
%TO.N,/RUN*%
X161500000Y-73000000D03*
X161500000Y-79500000D03*
%TD*%
D26*
%TO.N,+5V*%
X229500000Y-67920000D02*
X229500000Y-74000000D01*
X229500000Y-74000000D02*
X228000000Y-75500000D01*
X228000000Y-75500000D02*
X203500000Y-75500000D01*
X203500000Y-75500000D02*
X200500000Y-78500000D01*
X200500000Y-78500000D02*
X200500000Y-84000000D01*
X200500000Y-84000000D02*
X194500000Y-90000000D01*
X194500000Y-90000000D02*
X194500000Y-92700000D01*
D27*
%TO.N,/MAINS_N*%
X194500000Y-109000000D02*
X194500000Y-112000000D01*
X194500000Y-112000000D02*
X197000000Y-114500000D01*
X211500000Y-111500000D02*
X211500000Y-109000000D01*
X197000000Y-114500000D02*
X208500000Y-114500000D01*
X208500000Y-114500000D02*
X211500000Y-111500000D01*
%TO.N,/MAINS_L_OUT*%
X221500000Y-105000000D02*
X221500000Y-109000000D01*
X208000000Y-102500000D02*
X219000000Y-102500000D01*
X219000000Y-102500000D02*
X221500000Y-105000000D01*
X200500000Y-95000000D02*
X208000000Y-102500000D01*
X200500000Y-94700000D02*
X200500000Y-95000000D01*
%TD*%
%TA.AperFunction,Conductor*%
%TO.N,GND*%
G36*
X167943039Y-52520185D02*
G01*
X167988794Y-52572989D01*
X168000000Y-52624500D01*
X168000000Y-59500000D01*
X169629404Y-59500000D01*
X169696443Y-59519685D01*
X169742198Y-59572489D01*
X169752142Y-59641647D01*
X169723117Y-59705203D01*
X169708069Y-59719853D01*
X169632935Y-59781514D01*
X169521514Y-59892935D01*
X169458708Y-59969463D01*
X169458704Y-59969469D01*
X169371167Y-60100478D01*
X169371155Y-60100498D01*
X169324490Y-60187801D01*
X169264185Y-60333387D01*
X169235444Y-60428135D01*
X169204701Y-60582697D01*
X169204701Y-60582700D01*
X169195000Y-60681210D01*
X169195000Y-60838789D01*
X169204701Y-60937299D01*
X169204701Y-60937302D01*
X169235444Y-61091864D01*
X169264185Y-61186612D01*
X169324490Y-61332198D01*
X169371155Y-61419501D01*
X169371161Y-61419511D01*
X169417534Y-61488912D01*
X170017037Y-60889408D01*
X170034075Y-60952993D01*
X170099901Y-61067007D01*
X170192993Y-61160099D01*
X170307007Y-61225925D01*
X170370589Y-61242962D01*
X169771085Y-61842465D01*
X169840488Y-61888838D01*
X169840498Y-61888844D01*
X169906454Y-61924099D01*
X169956298Y-61973062D01*
X169971758Y-62041200D01*
X169947926Y-62106879D01*
X169904295Y-62143942D01*
X169818386Y-62187715D01*
X169652786Y-62308028D01*
X169508028Y-62452786D01*
X169387715Y-62618386D01*
X169294781Y-62800776D01*
X169231522Y-62995465D01*
X169199500Y-63197648D01*
X169199500Y-63402351D01*
X169231522Y-63604534D01*
X169294781Y-63799223D01*
X169387715Y-63981613D01*
X169508028Y-64147213D01*
X169652786Y-64291971D01*
X169807749Y-64404556D01*
X169818390Y-64412287D01*
X169909840Y-64458883D01*
X169911080Y-64459515D01*
X169961876Y-64507490D01*
X169978671Y-64575311D01*
X169956134Y-64641446D01*
X169911080Y-64680485D01*
X169818386Y-64727715D01*
X169652786Y-64848028D01*
X169508028Y-64992786D01*
X169387715Y-65158386D01*
X169294781Y-65340776D01*
X169231522Y-65535465D01*
X169199500Y-65737648D01*
X169199500Y-65942351D01*
X169231522Y-66144534D01*
X169294781Y-66339223D01*
X169387715Y-66521613D01*
X169508028Y-66687213D01*
X169652786Y-66831971D01*
X169733038Y-66890276D01*
X169818390Y-66952287D01*
X169909840Y-66998883D01*
X169911080Y-66999515D01*
X169961876Y-67047490D01*
X169978671Y-67115311D01*
X169956134Y-67181446D01*
X169911080Y-67220485D01*
X169818386Y-67267715D01*
X169652786Y-67388028D01*
X169508028Y-67532786D01*
X169387715Y-67698386D01*
X169294781Y-67880776D01*
X169231522Y-68075465D01*
X169199500Y-68277648D01*
X169199500Y-68482351D01*
X169231522Y-68684534D01*
X169294781Y-68879223D01*
X169387715Y-69061613D01*
X169508028Y-69227213D01*
X169652786Y-69371971D01*
X169807749Y-69484556D01*
X169818390Y-69492287D01*
X169909840Y-69538883D01*
X169911080Y-69539515D01*
X169961876Y-69587490D01*
X169978671Y-69655311D01*
X169956134Y-69721446D01*
X169911080Y-69760485D01*
X169818386Y-69807715D01*
X169652786Y-69928028D01*
X169508028Y-70072786D01*
X169387715Y-70238386D01*
X169294781Y-70420776D01*
X169231522Y-70615465D01*
X169199500Y-70817648D01*
X169199500Y-71022351D01*
X169231522Y-71224534D01*
X169294781Y-71419223D01*
X169387715Y-71601613D01*
X169508028Y-71767213D01*
X169652786Y-71911971D01*
X169818388Y-72032286D01*
X169818390Y-72032287D01*
X169904294Y-72076057D01*
X169955090Y-72124031D01*
X169971886Y-72191852D01*
X169949349Y-72257987D01*
X169906455Y-72295899D01*
X169840497Y-72331155D01*
X169771086Y-72377534D01*
X169771085Y-72377534D01*
X170370589Y-72977037D01*
X170307007Y-72994075D01*
X170192993Y-73059901D01*
X170099901Y-73152993D01*
X170034075Y-73267007D01*
X170017037Y-73330588D01*
X169417534Y-72731085D01*
X169417534Y-72731086D01*
X169371158Y-72800493D01*
X169324490Y-72887801D01*
X169264185Y-73033387D01*
X169235444Y-73128135D01*
X169204701Y-73282697D01*
X169204701Y-73282700D01*
X169195000Y-73381210D01*
X169195000Y-73538789D01*
X169204701Y-73637299D01*
X169204701Y-73637302D01*
X169235444Y-73791864D01*
X169264185Y-73886612D01*
X169324490Y-74032198D01*
X169371155Y-74119501D01*
X169371161Y-74119511D01*
X169417534Y-74188912D01*
X170017037Y-73589410D01*
X170034075Y-73652993D01*
X170099901Y-73767007D01*
X170192993Y-73860099D01*
X170307007Y-73925925D01*
X170370589Y-73942962D01*
X169771085Y-74542465D01*
X169840488Y-74588838D01*
X169840498Y-74588844D01*
X169906454Y-74624099D01*
X169956298Y-74673062D01*
X169971758Y-74741200D01*
X169947926Y-74806879D01*
X169904295Y-74843942D01*
X169818386Y-74887715D01*
X169652786Y-75008028D01*
X169508028Y-75152786D01*
X169387715Y-75318386D01*
X169294781Y-75500776D01*
X169231522Y-75695465D01*
X169199500Y-75897648D01*
X169199500Y-76102351D01*
X169231522Y-76304534D01*
X169294781Y-76499223D01*
X169387715Y-76681613D01*
X169508028Y-76847213D01*
X169652786Y-76991971D01*
X169807749Y-77104556D01*
X169818390Y-77112287D01*
X169909840Y-77158883D01*
X169911080Y-77159515D01*
X169961876Y-77207490D01*
X169978671Y-77275311D01*
X169956134Y-77341446D01*
X169911080Y-77380485D01*
X169818386Y-77427715D01*
X169652786Y-77548028D01*
X169508028Y-77692786D01*
X169387715Y-77858386D01*
X169294781Y-78040776D01*
X169231522Y-78235465D01*
X169205232Y-78401459D01*
X169199500Y-78437648D01*
X169199500Y-78642352D01*
X169203878Y-78669995D01*
X169231522Y-78844534D01*
X169294781Y-79039223D01*
X169305312Y-79059890D01*
X169367062Y-79181081D01*
X169387715Y-79221613D01*
X169508028Y-79387213D01*
X169652786Y-79531971D01*
X169771269Y-79618052D01*
X169818390Y-79652287D01*
X169909840Y-79698883D01*
X169911080Y-79699515D01*
X169961876Y-79747490D01*
X169978671Y-79815311D01*
X169956134Y-79881446D01*
X169911080Y-79920485D01*
X169818386Y-79967715D01*
X169652786Y-80088028D01*
X169508028Y-80232786D01*
X169387715Y-80398386D01*
X169294781Y-80580776D01*
X169231522Y-80775465D01*
X169199500Y-80977648D01*
X169199500Y-81182351D01*
X169231522Y-81384534D01*
X169294781Y-81579223D01*
X169387715Y-81761613D01*
X169508028Y-81927213D01*
X169652786Y-82071971D01*
X169775544Y-82161158D01*
X169818390Y-82192287D01*
X169909840Y-82238883D01*
X169911080Y-82239515D01*
X169961876Y-82287490D01*
X169978671Y-82355311D01*
X169956134Y-82421446D01*
X169911080Y-82460485D01*
X169818386Y-82507715D01*
X169652786Y-82628028D01*
X169508028Y-82772786D01*
X169387715Y-82938386D01*
X169294781Y-83120776D01*
X169231522Y-83315465D01*
X169199500Y-83517648D01*
X169199500Y-83722351D01*
X169231522Y-83924534D01*
X169294781Y-84119223D01*
X169358691Y-84244653D01*
X169382732Y-84291835D01*
X169387715Y-84301613D01*
X169508028Y-84467213D01*
X169652786Y-84611971D01*
X169818388Y-84732286D01*
X169818390Y-84732287D01*
X169904294Y-84776057D01*
X169955090Y-84824031D01*
X169971886Y-84891852D01*
X169949349Y-84957987D01*
X169906455Y-84995899D01*
X169840497Y-85031155D01*
X169771086Y-85077534D01*
X169771085Y-85077534D01*
X170370589Y-85677037D01*
X170307007Y-85694075D01*
X170192993Y-85759901D01*
X170099901Y-85852993D01*
X170034075Y-85967007D01*
X170017037Y-86030588D01*
X169417534Y-85431085D01*
X169417534Y-85431086D01*
X169371158Y-85500493D01*
X169324490Y-85587801D01*
X169264185Y-85733387D01*
X169235444Y-85828135D01*
X169204701Y-85982697D01*
X169204701Y-85982700D01*
X169195000Y-86081210D01*
X169195000Y-86238789D01*
X169204701Y-86337299D01*
X169204701Y-86337302D01*
X169235444Y-86491864D01*
X169264185Y-86586612D01*
X169324490Y-86732198D01*
X169371155Y-86819501D01*
X169371161Y-86819511D01*
X169417534Y-86888912D01*
X170017037Y-86289410D01*
X170034075Y-86352993D01*
X170099901Y-86467007D01*
X170192993Y-86560099D01*
X170307007Y-86625925D01*
X170370589Y-86642962D01*
X169771085Y-87242465D01*
X169840488Y-87288838D01*
X169840498Y-87288844D01*
X169906454Y-87324099D01*
X169956298Y-87373062D01*
X169971758Y-87441200D01*
X169947926Y-87506879D01*
X169904295Y-87543942D01*
X169818386Y-87587715D01*
X169652786Y-87708028D01*
X169508028Y-87852786D01*
X169387715Y-88018386D01*
X169294781Y-88200776D01*
X169231522Y-88395465D01*
X169199500Y-88597648D01*
X169199500Y-88802351D01*
X169231522Y-89004534D01*
X169294781Y-89199223D01*
X169358691Y-89324653D01*
X169377832Y-89362218D01*
X169387715Y-89381613D01*
X169508028Y-89547213D01*
X169652786Y-89691971D01*
X169807749Y-89804556D01*
X169818390Y-89812287D01*
X169909840Y-89858883D01*
X169911080Y-89859515D01*
X169961876Y-89907490D01*
X169978671Y-89975311D01*
X169956134Y-90041446D01*
X169911080Y-90080485D01*
X169818386Y-90127715D01*
X169652786Y-90248028D01*
X169508028Y-90392786D01*
X169387715Y-90558386D01*
X169294781Y-90740776D01*
X169231522Y-90935465D01*
X169199500Y-91137648D01*
X169199500Y-91342351D01*
X169231522Y-91544534D01*
X169294781Y-91739223D01*
X169387715Y-91921613D01*
X169508028Y-92087213D01*
X169652786Y-92231971D01*
X169737393Y-92293440D01*
X169818390Y-92352287D01*
X169884946Y-92386199D01*
X169911080Y-92399515D01*
X169961876Y-92447490D01*
X169978671Y-92515311D01*
X169956134Y-92581446D01*
X169911080Y-92620485D01*
X169818386Y-92667715D01*
X169652786Y-92788028D01*
X169508028Y-92932786D01*
X169387715Y-93098386D01*
X169294781Y-93280776D01*
X169231522Y-93475465D01*
X169199500Y-93677648D01*
X169199500Y-93882351D01*
X169231522Y-94084534D01*
X169294781Y-94279223D01*
X169336530Y-94361158D01*
X169382052Y-94450500D01*
X169387715Y-94461613D01*
X169508028Y-94627213D01*
X169652786Y-94771971D01*
X169773365Y-94859575D01*
X169818390Y-94892287D01*
X169909840Y-94938883D01*
X169911080Y-94939515D01*
X169961876Y-94987490D01*
X169978671Y-95055311D01*
X169956134Y-95121446D01*
X169911080Y-95160485D01*
X169818386Y-95207715D01*
X169652786Y-95328028D01*
X169508028Y-95472786D01*
X169387715Y-95638386D01*
X169294781Y-95820776D01*
X169231522Y-96015465D01*
X169199500Y-96217648D01*
X169199500Y-96422351D01*
X169231522Y-96624534D01*
X169294781Y-96819223D01*
X169387715Y-97001613D01*
X169508028Y-97167213D01*
X169652786Y-97311971D01*
X169818388Y-97432286D01*
X169818390Y-97432287D01*
X169904294Y-97476057D01*
X169955090Y-97524031D01*
X169971886Y-97591852D01*
X169949349Y-97657987D01*
X169906455Y-97695899D01*
X169840497Y-97731155D01*
X169771086Y-97777534D01*
X169771085Y-97777534D01*
X170370589Y-98377037D01*
X170307007Y-98394075D01*
X170192993Y-98459901D01*
X170099901Y-98552993D01*
X170034075Y-98667007D01*
X170017037Y-98730588D01*
X169417534Y-98131085D01*
X169417534Y-98131086D01*
X169371158Y-98200493D01*
X169324490Y-98287801D01*
X169264185Y-98433387D01*
X169235444Y-98528135D01*
X169204701Y-98682697D01*
X169204701Y-98682700D01*
X169195000Y-98781210D01*
X169195000Y-98938789D01*
X169204701Y-99037299D01*
X169204701Y-99037302D01*
X169235444Y-99191864D01*
X169264185Y-99286612D01*
X169324490Y-99432198D01*
X169371155Y-99519501D01*
X169371161Y-99519511D01*
X169417534Y-99588912D01*
X170017037Y-98989410D01*
X170034075Y-99052993D01*
X170099901Y-99167007D01*
X170192993Y-99260099D01*
X170307007Y-99325925D01*
X170370589Y-99342962D01*
X169771085Y-99942465D01*
X169840488Y-99988838D01*
X169840498Y-99988844D01*
X169906454Y-100024099D01*
X169956298Y-100073062D01*
X169971758Y-100141200D01*
X169947926Y-100206879D01*
X169904295Y-100243942D01*
X169818386Y-100287715D01*
X169652786Y-100408028D01*
X169508028Y-100552786D01*
X169387715Y-100718386D01*
X169294781Y-100900776D01*
X169231522Y-101095465D01*
X169199500Y-101297648D01*
X169199500Y-101502351D01*
X169231522Y-101704534D01*
X169294781Y-101899223D01*
X169387715Y-102081613D01*
X169508028Y-102247213D01*
X169652786Y-102391971D01*
X169798189Y-102497610D01*
X169818390Y-102512287D01*
X169909840Y-102558883D01*
X169911080Y-102559515D01*
X169961876Y-102607490D01*
X169978671Y-102675311D01*
X169956134Y-102741446D01*
X169911080Y-102780485D01*
X169818386Y-102827715D01*
X169652786Y-102948028D01*
X169508028Y-103092786D01*
X169387715Y-103258386D01*
X169294781Y-103440776D01*
X169231522Y-103635465D01*
X169199500Y-103837648D01*
X169199500Y-104042351D01*
X169231522Y-104244534D01*
X169294781Y-104439223D01*
X169347416Y-104542523D01*
X169374976Y-104596613D01*
X169387715Y-104621613D01*
X169508028Y-104787213D01*
X169652786Y-104931971D01*
X169807749Y-105044556D01*
X169818390Y-105052287D01*
X169934607Y-105111503D01*
X170000776Y-105145218D01*
X170000778Y-105145218D01*
X170000781Y-105145220D01*
X170105137Y-105179127D01*
X170195465Y-105208477D01*
X170296557Y-105224488D01*
X170397648Y-105240500D01*
X170397649Y-105240500D01*
X170602351Y-105240500D01*
X170602352Y-105240500D01*
X170804534Y-105208477D01*
X170999219Y-105145220D01*
X171181610Y-105052287D01*
X171296170Y-104969055D01*
X171347213Y-104931971D01*
X171347215Y-104931968D01*
X171347219Y-104931966D01*
X171491966Y-104787219D01*
X171491968Y-104787215D01*
X171491971Y-104787213D01*
X171579170Y-104667192D01*
X171612287Y-104621610D01*
X171705220Y-104439219D01*
X171768477Y-104244534D01*
X171800500Y-104042352D01*
X171800500Y-103837648D01*
X171768477Y-103635466D01*
X171705220Y-103440781D01*
X171705218Y-103440778D01*
X171705218Y-103440776D01*
X171649373Y-103331175D01*
X171612287Y-103258390D01*
X171604556Y-103247749D01*
X171491971Y-103092786D01*
X171347213Y-102948028D01*
X171181614Y-102827715D01*
X171175006Y-102824348D01*
X171088917Y-102780483D01*
X171038123Y-102732511D01*
X171021328Y-102664690D01*
X171043865Y-102598555D01*
X171088917Y-102559516D01*
X171181610Y-102512287D01*
X171266440Y-102450655D01*
X171347213Y-102391971D01*
X171347215Y-102391968D01*
X171347219Y-102391966D01*
X171491966Y-102247219D01*
X171491968Y-102247215D01*
X171491971Y-102247213D01*
X171544732Y-102174590D01*
X171612287Y-102081610D01*
X171705220Y-101899219D01*
X171768477Y-101704534D01*
X171800500Y-101502352D01*
X171800500Y-101297648D01*
X171768477Y-101095466D01*
X171705220Y-100900781D01*
X171705218Y-100900778D01*
X171705218Y-100900776D01*
X171671503Y-100834607D01*
X171612287Y-100718390D01*
X171549946Y-100632584D01*
X171491971Y-100552786D01*
X171347217Y-100408032D01*
X171270415Y-100352232D01*
X171227750Y-100296902D01*
X171221771Y-100227288D01*
X171254377Y-100165494D01*
X171312640Y-100131765D01*
X171333039Y-100126559D01*
X171389584Y-100103136D01*
X171389584Y-100103135D01*
X170629410Y-99342962D01*
X170692993Y-99325925D01*
X170807007Y-99260099D01*
X170900099Y-99167007D01*
X170965925Y-99052993D01*
X170982962Y-98989410D01*
X171743135Y-99749584D01*
X171743136Y-99749584D01*
X171766552Y-99693053D01*
X171784544Y-99642053D01*
X171804999Y-99499780D01*
X171805000Y-99499779D01*
X171805000Y-98220224D01*
X171804999Y-98220204D01*
X171802106Y-98166237D01*
X171802106Y-98166235D01*
X171766561Y-98026969D01*
X171766559Y-98026962D01*
X171743135Y-97970414D01*
X170982962Y-98730588D01*
X170965925Y-98667007D01*
X170900099Y-98552993D01*
X170807007Y-98459901D01*
X170692993Y-98394075D01*
X170629410Y-98377037D01*
X171389584Y-97616862D01*
X171333059Y-97593449D01*
X171333048Y-97593445D01*
X171304374Y-97583329D01*
X171247703Y-97542462D01*
X171222122Y-97477443D01*
X171235754Y-97408916D01*
X171272745Y-97366074D01*
X171347215Y-97311969D01*
X171347215Y-97311968D01*
X171347219Y-97311966D01*
X171491966Y-97167219D01*
X171491968Y-97167215D01*
X171491971Y-97167213D01*
X171544732Y-97094590D01*
X171612287Y-97001610D01*
X171705220Y-96819219D01*
X171768477Y-96624534D01*
X171800500Y-96422352D01*
X171800500Y-96217648D01*
X171768477Y-96015466D01*
X171753670Y-95969896D01*
X171733452Y-95907669D01*
X171705220Y-95820781D01*
X171705218Y-95820778D01*
X171705218Y-95820776D01*
X171640274Y-95693318D01*
X171612287Y-95638390D01*
X171604556Y-95627749D01*
X171491971Y-95472786D01*
X171347213Y-95328028D01*
X171181614Y-95207715D01*
X171175006Y-95204348D01*
X171088917Y-95160483D01*
X171038123Y-95112511D01*
X171021328Y-95044690D01*
X171043865Y-94978555D01*
X171088917Y-94939516D01*
X171181610Y-94892287D01*
X171226635Y-94859575D01*
X171347213Y-94771971D01*
X171347215Y-94771968D01*
X171347219Y-94771966D01*
X171491966Y-94627219D01*
X171491968Y-94627215D01*
X171491971Y-94627213D01*
X171544732Y-94554590D01*
X171612287Y-94461610D01*
X171705220Y-94279219D01*
X171768477Y-94084534D01*
X171800500Y-93882352D01*
X171800500Y-93677648D01*
X171768477Y-93475466D01*
X171705220Y-93280781D01*
X171705218Y-93280778D01*
X171705218Y-93280776D01*
X171671503Y-93214607D01*
X171612287Y-93098390D01*
X171563453Y-93031175D01*
X171491971Y-92932786D01*
X171347213Y-92788028D01*
X171181614Y-92667715D01*
X171161521Y-92657477D01*
X171088917Y-92620483D01*
X171038123Y-92572511D01*
X171021328Y-92504690D01*
X171043865Y-92438555D01*
X171088917Y-92399516D01*
X171181610Y-92352287D01*
X171262607Y-92293440D01*
X171347213Y-92231971D01*
X171347215Y-92231968D01*
X171347219Y-92231966D01*
X171491966Y-92087219D01*
X171491968Y-92087215D01*
X171491971Y-92087213D01*
X171544732Y-92014590D01*
X171612287Y-91921610D01*
X171705220Y-91739219D01*
X171768477Y-91544534D01*
X171800500Y-91342352D01*
X171800500Y-91137648D01*
X171768477Y-90935466D01*
X171705220Y-90740781D01*
X171705218Y-90740778D01*
X171705218Y-90740776D01*
X171671503Y-90674607D01*
X171612287Y-90558390D01*
X171604556Y-90547749D01*
X171491971Y-90392786D01*
X171347213Y-90248028D01*
X171181614Y-90127715D01*
X171175006Y-90124348D01*
X171088917Y-90080483D01*
X171038123Y-90032511D01*
X171021328Y-89964690D01*
X171043865Y-89898555D01*
X171088917Y-89859516D01*
X171181610Y-89812287D01*
X171202770Y-89796913D01*
X171347213Y-89691971D01*
X171347215Y-89691968D01*
X171347219Y-89691966D01*
X171491966Y-89547219D01*
X171491968Y-89547215D01*
X171491971Y-89547213D01*
X171544732Y-89474590D01*
X171612287Y-89381610D01*
X171705220Y-89199219D01*
X171768477Y-89004534D01*
X171800500Y-88802352D01*
X171800500Y-88597648D01*
X171768477Y-88395466D01*
X171705220Y-88200781D01*
X171705218Y-88200778D01*
X171705218Y-88200776D01*
X171671503Y-88134607D01*
X171612287Y-88018390D01*
X171604556Y-88007749D01*
X171491971Y-87852786D01*
X171347217Y-87708032D01*
X171270415Y-87652232D01*
X171227750Y-87596902D01*
X171221771Y-87527288D01*
X171254377Y-87465494D01*
X171312640Y-87431765D01*
X171333039Y-87426559D01*
X171389584Y-87403136D01*
X171389584Y-87403135D01*
X170629410Y-86642962D01*
X170692993Y-86625925D01*
X170807007Y-86560099D01*
X170900099Y-86467007D01*
X170965925Y-86352993D01*
X170982962Y-86289410D01*
X171743135Y-87049584D01*
X171743136Y-87049584D01*
X171766552Y-86993053D01*
X171784544Y-86942053D01*
X171804999Y-86799780D01*
X171805000Y-86799779D01*
X171805000Y-85520224D01*
X171804999Y-85520204D01*
X171802106Y-85466237D01*
X171802106Y-85466235D01*
X171766561Y-85326969D01*
X171766559Y-85326962D01*
X171743135Y-85270414D01*
X170982962Y-86030588D01*
X170965925Y-85967007D01*
X170900099Y-85852993D01*
X170807007Y-85759901D01*
X170692993Y-85694075D01*
X170629410Y-85677037D01*
X171389584Y-84916862D01*
X171333059Y-84893449D01*
X171333048Y-84893445D01*
X171304374Y-84883329D01*
X171247703Y-84842462D01*
X171222122Y-84777443D01*
X171235754Y-84708916D01*
X171272745Y-84666074D01*
X171347215Y-84611969D01*
X171347215Y-84611968D01*
X171347219Y-84611966D01*
X171491966Y-84467219D01*
X171491968Y-84467215D01*
X171491971Y-84467213D01*
X171544732Y-84394590D01*
X171612287Y-84301610D01*
X171705220Y-84119219D01*
X171768477Y-83924534D01*
X171800500Y-83722352D01*
X171800500Y-83517648D01*
X171768477Y-83315466D01*
X171705220Y-83120781D01*
X171705218Y-83120778D01*
X171705218Y-83120776D01*
X171671503Y-83054607D01*
X171612287Y-82938390D01*
X171604556Y-82927749D01*
X171491971Y-82772786D01*
X171347213Y-82628028D01*
X171181614Y-82507715D01*
X171175006Y-82504348D01*
X171088917Y-82460483D01*
X171038123Y-82412511D01*
X171021328Y-82344690D01*
X171043865Y-82278555D01*
X171088917Y-82239516D01*
X171181610Y-82192287D01*
X171224456Y-82161158D01*
X171347213Y-82071971D01*
X171347215Y-82071968D01*
X171347219Y-82071966D01*
X171491966Y-81927219D01*
X171491968Y-81927215D01*
X171491971Y-81927213D01*
X171570650Y-81818919D01*
X171612287Y-81761610D01*
X171705220Y-81579219D01*
X171768477Y-81384534D01*
X171800500Y-81182352D01*
X171800500Y-80977648D01*
X171769725Y-80783343D01*
X171768477Y-80775465D01*
X171705218Y-80580776D01*
X171671503Y-80514607D01*
X171612287Y-80398390D01*
X171592061Y-80370551D01*
X171491971Y-80232786D01*
X171347213Y-80088028D01*
X171181614Y-79967715D01*
X171127436Y-79940110D01*
X171088917Y-79920483D01*
X171038123Y-79872511D01*
X171021328Y-79804690D01*
X171043865Y-79738555D01*
X171088917Y-79699516D01*
X171181610Y-79652287D01*
X171291554Y-79572409D01*
X171347213Y-79531971D01*
X171347215Y-79531968D01*
X171347219Y-79531966D01*
X171491966Y-79387219D01*
X171491968Y-79387215D01*
X171491971Y-79387213D01*
X171564264Y-79287708D01*
X171612287Y-79221610D01*
X171705220Y-79039219D01*
X171768477Y-78844534D01*
X171800500Y-78642352D01*
X171800500Y-78437648D01*
X171794768Y-78401459D01*
X171768477Y-78235465D01*
X171705218Y-78040776D01*
X171614237Y-77862218D01*
X171612287Y-77858390D01*
X171604556Y-77847749D01*
X171491971Y-77692786D01*
X171347213Y-77548028D01*
X171181614Y-77427715D01*
X171175006Y-77424348D01*
X171088917Y-77380483D01*
X171038123Y-77332511D01*
X171021328Y-77264690D01*
X171043865Y-77198555D01*
X171088917Y-77159516D01*
X171181610Y-77112287D01*
X171202770Y-77096913D01*
X171347213Y-76991971D01*
X171347215Y-76991968D01*
X171347219Y-76991966D01*
X171491966Y-76847219D01*
X171491968Y-76847215D01*
X171491971Y-76847213D01*
X171544732Y-76774590D01*
X171612287Y-76681610D01*
X171705220Y-76499219D01*
X171768477Y-76304534D01*
X171800500Y-76102352D01*
X171800500Y-75897648D01*
X171768477Y-75695466D01*
X171705220Y-75500781D01*
X171705218Y-75500778D01*
X171705218Y-75500776D01*
X171671503Y-75434607D01*
X171612287Y-75318390D01*
X171604556Y-75307749D01*
X171491971Y-75152786D01*
X171347217Y-75008032D01*
X171270415Y-74952232D01*
X171227750Y-74896902D01*
X171221771Y-74827288D01*
X171254377Y-74765494D01*
X171312640Y-74731765D01*
X171333039Y-74726559D01*
X171389584Y-74703136D01*
X171389584Y-74703135D01*
X170629410Y-73942962D01*
X170692993Y-73925925D01*
X170807007Y-73860099D01*
X170900099Y-73767007D01*
X170965925Y-73652993D01*
X170982962Y-73589410D01*
X171743135Y-74349584D01*
X171743136Y-74349584D01*
X171766552Y-74293053D01*
X171784544Y-74242053D01*
X171804999Y-74099780D01*
X171805000Y-74099779D01*
X171805000Y-72820224D01*
X171804999Y-72820204D01*
X171802106Y-72766237D01*
X171802106Y-72766235D01*
X171766561Y-72626969D01*
X171766559Y-72626962D01*
X171743135Y-72570414D01*
X170982962Y-73330588D01*
X170965925Y-73267007D01*
X170900099Y-73152993D01*
X170807007Y-73059901D01*
X170692993Y-72994075D01*
X170629410Y-72977037D01*
X171389584Y-72216862D01*
X171333059Y-72193449D01*
X171333048Y-72193445D01*
X171304374Y-72183329D01*
X171247703Y-72142462D01*
X171222122Y-72077443D01*
X171235754Y-72008916D01*
X171272745Y-71966074D01*
X171347215Y-71911969D01*
X171347215Y-71911968D01*
X171347219Y-71911966D01*
X171491966Y-71767219D01*
X171491968Y-71767215D01*
X171491971Y-71767213D01*
X171544732Y-71694590D01*
X171612287Y-71601610D01*
X171705220Y-71419219D01*
X171768477Y-71224534D01*
X171800500Y-71022352D01*
X171800500Y-70817648D01*
X171798404Y-70804417D01*
X171768477Y-70615465D01*
X171708571Y-70431094D01*
X171705220Y-70420781D01*
X171705218Y-70420778D01*
X171705218Y-70420776D01*
X171620441Y-70254394D01*
X171612287Y-70238390D01*
X171604556Y-70227749D01*
X171491971Y-70072786D01*
X171347213Y-69928028D01*
X171181614Y-69807715D01*
X171175006Y-69804348D01*
X171088917Y-69760483D01*
X171038123Y-69712511D01*
X171021328Y-69644690D01*
X171043865Y-69578555D01*
X171088917Y-69539516D01*
X171181610Y-69492287D01*
X171202770Y-69476913D01*
X171347213Y-69371971D01*
X171347215Y-69371968D01*
X171347219Y-69371966D01*
X171491966Y-69227219D01*
X171491968Y-69227215D01*
X171491971Y-69227213D01*
X171544732Y-69154590D01*
X171612287Y-69061610D01*
X171705220Y-68879219D01*
X171768477Y-68684534D01*
X171800500Y-68482352D01*
X171800500Y-68277648D01*
X171768477Y-68075466D01*
X171752497Y-68026286D01*
X171705218Y-67880776D01*
X171645390Y-67763359D01*
X171612287Y-67698390D01*
X171591661Y-67670000D01*
X171491971Y-67532786D01*
X171347213Y-67388028D01*
X171181614Y-67267715D01*
X171175006Y-67264348D01*
X171088917Y-67220483D01*
X171038123Y-67172511D01*
X171021328Y-67104690D01*
X171043865Y-67038555D01*
X171088917Y-66999516D01*
X171181610Y-66952287D01*
X171267493Y-66889890D01*
X171347213Y-66831971D01*
X171347215Y-66831968D01*
X171347219Y-66831966D01*
X171491966Y-66687219D01*
X171491968Y-66687215D01*
X171491971Y-66687213D01*
X171577493Y-66569500D01*
X171612287Y-66521610D01*
X171705220Y-66339219D01*
X171768477Y-66144534D01*
X171800500Y-65942352D01*
X171800500Y-65737648D01*
X171768477Y-65535466D01*
X171705220Y-65340781D01*
X171705218Y-65340778D01*
X171705218Y-65340776D01*
X171671503Y-65274607D01*
X171612287Y-65158390D01*
X171604556Y-65147749D01*
X171491971Y-64992786D01*
X171347213Y-64848028D01*
X171181614Y-64727715D01*
X171175006Y-64724348D01*
X171088917Y-64680483D01*
X171038123Y-64632511D01*
X171021328Y-64564690D01*
X171043865Y-64498555D01*
X171088917Y-64459516D01*
X171181610Y-64412287D01*
X171202770Y-64396913D01*
X171347213Y-64291971D01*
X171347215Y-64291968D01*
X171347219Y-64291966D01*
X171491966Y-64147219D01*
X171491968Y-64147215D01*
X171491971Y-64147213D01*
X171544732Y-64074590D01*
X171612287Y-63981610D01*
X171705220Y-63799219D01*
X171768477Y-63604534D01*
X171800500Y-63402352D01*
X171800500Y-63197648D01*
X171768477Y-62995466D01*
X171768476Y-62995464D01*
X171708571Y-62811094D01*
X171705220Y-62800781D01*
X171705218Y-62800778D01*
X171705218Y-62800776D01*
X171671503Y-62734607D01*
X171612287Y-62618390D01*
X171581101Y-62575466D01*
X171491971Y-62452786D01*
X171347217Y-62308032D01*
X171270415Y-62252232D01*
X171227750Y-62196902D01*
X171221771Y-62127288D01*
X171254377Y-62065494D01*
X171312640Y-62031765D01*
X171333039Y-62026559D01*
X171389584Y-62003136D01*
X171389584Y-62003135D01*
X170629410Y-61242962D01*
X170692993Y-61225925D01*
X170807007Y-61160099D01*
X170900099Y-61067007D01*
X170965925Y-60952993D01*
X170982962Y-60889411D01*
X171743135Y-61649584D01*
X171743136Y-61649584D01*
X171766552Y-61593053D01*
X171784544Y-61542053D01*
X171804999Y-61399780D01*
X171805000Y-61399779D01*
X171805000Y-60120214D01*
X171802106Y-60066237D01*
X171802106Y-60066235D01*
X171766561Y-59926969D01*
X171766557Y-59926957D01*
X171736118Y-59853471D01*
X171736106Y-59853443D01*
X171712781Y-59804690D01*
X171712778Y-59804685D01*
X171633147Y-59698311D01*
X171608730Y-59632846D01*
X171623582Y-59564573D01*
X171672987Y-59515168D01*
X171732414Y-59500000D01*
X172166000Y-59500000D01*
X172233039Y-59519685D01*
X172278794Y-59572489D01*
X172290000Y-59624000D01*
X172290000Y-62810000D01*
X186490000Y-62810000D01*
X186490000Y-59624000D01*
X186509685Y-59556961D01*
X186562489Y-59511206D01*
X186614000Y-59500000D01*
X187045622Y-59500000D01*
X187112661Y-59519685D01*
X187158416Y-59572489D01*
X187168360Y-59641647D01*
X187139335Y-59705203D01*
X187137871Y-59706862D01*
X187117229Y-59729842D01*
X187043888Y-59853454D01*
X187043884Y-59853461D01*
X187013452Y-59926932D01*
X187013451Y-59926935D01*
X186995455Y-59977946D01*
X186975000Y-60120219D01*
X186975000Y-61399785D01*
X186977893Y-61453762D01*
X186977893Y-61453764D01*
X187013438Y-61593030D01*
X187013442Y-61593043D01*
X187036862Y-61649584D01*
X187797037Y-60889408D01*
X187814075Y-60952993D01*
X187879901Y-61067007D01*
X187972993Y-61160099D01*
X188087007Y-61225925D01*
X188150589Y-61242962D01*
X187390414Y-62003135D01*
X187446960Y-62026557D01*
X187446986Y-62026567D01*
X187475621Y-62036669D01*
X187532294Y-62077534D01*
X187557876Y-62142552D01*
X187544246Y-62211080D01*
X187507256Y-62253924D01*
X187432782Y-62308032D01*
X187288028Y-62452786D01*
X187167715Y-62618386D01*
X187074781Y-62800776D01*
X187011522Y-62995465D01*
X186979500Y-63197648D01*
X186979500Y-63402351D01*
X187011522Y-63604534D01*
X187074781Y-63799223D01*
X187167715Y-63981613D01*
X187288028Y-64147213D01*
X187432786Y-64291971D01*
X187587749Y-64404556D01*
X187598390Y-64412287D01*
X187689840Y-64458883D01*
X187691080Y-64459515D01*
X187741876Y-64507490D01*
X187758671Y-64575311D01*
X187736134Y-64641446D01*
X187691080Y-64680485D01*
X187598386Y-64727715D01*
X187432786Y-64848028D01*
X187288028Y-64992786D01*
X187167715Y-65158386D01*
X187074781Y-65340776D01*
X187011522Y-65535465D01*
X186979500Y-65737648D01*
X186979500Y-65942351D01*
X187011522Y-66144534D01*
X187074781Y-66339223D01*
X187167715Y-66521613D01*
X187288028Y-66687213D01*
X187432786Y-66831971D01*
X187513038Y-66890276D01*
X187598390Y-66952287D01*
X187689840Y-66998883D01*
X187691080Y-66999515D01*
X187741876Y-67047490D01*
X187758671Y-67115311D01*
X187736134Y-67181446D01*
X187691080Y-67220485D01*
X187598386Y-67267715D01*
X187432786Y-67388028D01*
X187288028Y-67532786D01*
X187167715Y-67698386D01*
X187074781Y-67880776D01*
X187011522Y-68075465D01*
X186979500Y-68277648D01*
X186979500Y-68482351D01*
X187011522Y-68684534D01*
X187074781Y-68879223D01*
X187167715Y-69061613D01*
X187288028Y-69227213D01*
X187432786Y-69371971D01*
X187587749Y-69484556D01*
X187598390Y-69492287D01*
X187689840Y-69538883D01*
X187691080Y-69539515D01*
X187741876Y-69587490D01*
X187758671Y-69655311D01*
X187736134Y-69721446D01*
X187691080Y-69760485D01*
X187598386Y-69807715D01*
X187432786Y-69928028D01*
X187288028Y-70072786D01*
X187167715Y-70238386D01*
X187074781Y-70420776D01*
X187011522Y-70615465D01*
X186979500Y-70817648D01*
X186979500Y-71022351D01*
X187011522Y-71224534D01*
X187074781Y-71419223D01*
X187167715Y-71601613D01*
X187288028Y-71767213D01*
X187432782Y-71911967D01*
X187432787Y-71911971D01*
X187509583Y-71967767D01*
X187552249Y-72023097D01*
X187558228Y-72092710D01*
X187525622Y-72154505D01*
X187467365Y-72188233D01*
X187446973Y-72193437D01*
X187446962Y-72193441D01*
X187390415Y-72216863D01*
X188150589Y-72977037D01*
X188087007Y-72994075D01*
X187972993Y-73059901D01*
X187879901Y-73152993D01*
X187814075Y-73267007D01*
X187797037Y-73330589D01*
X187036863Y-72570415D01*
X187036862Y-72570415D01*
X187013446Y-72626947D01*
X187013431Y-72626987D01*
X186995457Y-72677939D01*
X186995455Y-72677946D01*
X186975000Y-72820219D01*
X186975000Y-74099785D01*
X186977893Y-74153762D01*
X186977893Y-74153764D01*
X187013438Y-74293030D01*
X187013442Y-74293043D01*
X187036862Y-74349584D01*
X187797037Y-73589410D01*
X187814075Y-73652993D01*
X187879901Y-73767007D01*
X187972993Y-73860099D01*
X188087007Y-73925925D01*
X188150589Y-73942962D01*
X187390414Y-74703135D01*
X187446960Y-74726557D01*
X187446986Y-74726567D01*
X187475621Y-74736669D01*
X187532294Y-74777534D01*
X187557876Y-74842552D01*
X187544246Y-74911080D01*
X187507256Y-74953924D01*
X187432782Y-75008032D01*
X187288028Y-75152786D01*
X187167715Y-75318386D01*
X187074781Y-75500776D01*
X187011522Y-75695465D01*
X186979500Y-75897648D01*
X186979500Y-76102351D01*
X187011522Y-76304534D01*
X187074781Y-76499223D01*
X187167715Y-76681613D01*
X187288028Y-76847213D01*
X187432786Y-76991971D01*
X187587749Y-77104556D01*
X187598390Y-77112287D01*
X187689840Y-77158883D01*
X187691080Y-77159515D01*
X187741876Y-77207490D01*
X187758671Y-77275311D01*
X187736134Y-77341446D01*
X187691080Y-77380485D01*
X187598386Y-77427715D01*
X187432786Y-77548028D01*
X187288028Y-77692786D01*
X187167715Y-77858386D01*
X187074781Y-78040776D01*
X187011522Y-78235465D01*
X186985232Y-78401459D01*
X186979500Y-78437648D01*
X186979500Y-78642352D01*
X186983878Y-78669995D01*
X187011522Y-78844534D01*
X187074781Y-79039223D01*
X187085312Y-79059890D01*
X187147062Y-79181081D01*
X187167715Y-79221613D01*
X187288028Y-79387213D01*
X187432786Y-79531971D01*
X187551269Y-79618052D01*
X187598390Y-79652287D01*
X187689840Y-79698883D01*
X187691080Y-79699515D01*
X187741876Y-79747490D01*
X187758671Y-79815311D01*
X187736134Y-79881446D01*
X187691080Y-79920485D01*
X187598386Y-79967715D01*
X187432786Y-80088028D01*
X187288028Y-80232786D01*
X187167715Y-80398386D01*
X187074781Y-80580776D01*
X187011522Y-80775465D01*
X186979500Y-80977648D01*
X186979500Y-81182351D01*
X187011522Y-81384534D01*
X187074781Y-81579223D01*
X187167715Y-81761613D01*
X187288028Y-81927213D01*
X187432786Y-82071971D01*
X187555544Y-82161158D01*
X187598390Y-82192287D01*
X187689840Y-82238883D01*
X187691080Y-82239515D01*
X187741876Y-82287490D01*
X187758671Y-82355311D01*
X187736134Y-82421446D01*
X187691080Y-82460485D01*
X187598386Y-82507715D01*
X187432786Y-82628028D01*
X187288028Y-82772786D01*
X187167715Y-82938386D01*
X187074781Y-83120776D01*
X187011522Y-83315465D01*
X186979500Y-83517648D01*
X186979500Y-83722351D01*
X187011522Y-83924534D01*
X187074781Y-84119223D01*
X187138691Y-84244653D01*
X187162732Y-84291835D01*
X187167715Y-84301613D01*
X187288028Y-84467213D01*
X187432782Y-84611967D01*
X187432787Y-84611971D01*
X187509583Y-84667767D01*
X187552249Y-84723097D01*
X187558228Y-84792710D01*
X187525622Y-84854505D01*
X187467365Y-84888233D01*
X187446973Y-84893437D01*
X187446962Y-84893441D01*
X187390415Y-84916863D01*
X188150589Y-85677037D01*
X188087007Y-85694075D01*
X187972993Y-85759901D01*
X187879901Y-85852993D01*
X187814075Y-85967007D01*
X187797037Y-86030589D01*
X187036863Y-85270415D01*
X187036862Y-85270415D01*
X187013446Y-85326947D01*
X187013431Y-85326987D01*
X186995457Y-85377939D01*
X186995455Y-85377946D01*
X186975000Y-85520219D01*
X186975000Y-86799785D01*
X186977893Y-86853762D01*
X186977893Y-86853764D01*
X187013438Y-86993030D01*
X187013442Y-86993043D01*
X187036862Y-87049584D01*
X187797037Y-86289410D01*
X187814075Y-86352993D01*
X187879901Y-86467007D01*
X187972993Y-86560099D01*
X188087007Y-86625925D01*
X188150589Y-86642962D01*
X187390414Y-87403135D01*
X187446960Y-87426557D01*
X187446986Y-87426567D01*
X187475621Y-87436669D01*
X187532294Y-87477534D01*
X187557876Y-87542552D01*
X187544246Y-87611080D01*
X187507256Y-87653924D01*
X187432782Y-87708032D01*
X187288028Y-87852786D01*
X187167715Y-88018386D01*
X187074781Y-88200776D01*
X187011522Y-88395465D01*
X186979500Y-88597648D01*
X186979500Y-88802351D01*
X187011522Y-89004534D01*
X187074781Y-89199223D01*
X187138691Y-89324653D01*
X187157832Y-89362218D01*
X187167715Y-89381613D01*
X187288028Y-89547213D01*
X187432786Y-89691971D01*
X187587749Y-89804556D01*
X187598390Y-89812287D01*
X187689840Y-89858883D01*
X187691080Y-89859515D01*
X187741876Y-89907490D01*
X187758671Y-89975311D01*
X187736134Y-90041446D01*
X187691080Y-90080485D01*
X187598386Y-90127715D01*
X187432786Y-90248028D01*
X187288028Y-90392786D01*
X187167715Y-90558386D01*
X187074781Y-90740776D01*
X187011522Y-90935465D01*
X186979500Y-91137648D01*
X186979500Y-91342351D01*
X187011522Y-91544534D01*
X187074781Y-91739223D01*
X187167715Y-91921613D01*
X187288028Y-92087213D01*
X187432786Y-92231971D01*
X187517393Y-92293440D01*
X187598390Y-92352287D01*
X187664946Y-92386199D01*
X187691080Y-92399515D01*
X187741876Y-92447490D01*
X187758671Y-92515311D01*
X187736134Y-92581446D01*
X187691080Y-92620485D01*
X187598386Y-92667715D01*
X187432786Y-92788028D01*
X187288028Y-92932786D01*
X187167715Y-93098386D01*
X187074781Y-93280776D01*
X187011522Y-93475465D01*
X186979500Y-93677648D01*
X186979500Y-93882351D01*
X187011522Y-94084534D01*
X187074781Y-94279223D01*
X187116530Y-94361158D01*
X187162052Y-94450500D01*
X187167715Y-94461613D01*
X187288028Y-94627213D01*
X187432786Y-94771971D01*
X187553365Y-94859575D01*
X187598390Y-94892287D01*
X187689840Y-94938883D01*
X187691080Y-94939515D01*
X187741876Y-94987490D01*
X187758671Y-95055311D01*
X187736134Y-95121446D01*
X187691080Y-95160485D01*
X187598386Y-95207715D01*
X187432786Y-95328028D01*
X187288028Y-95472786D01*
X187167715Y-95638386D01*
X187074781Y-95820776D01*
X187011522Y-96015465D01*
X186979500Y-96217648D01*
X186979500Y-96422351D01*
X187011522Y-96624534D01*
X187074781Y-96819223D01*
X187167715Y-97001613D01*
X187288028Y-97167213D01*
X187432782Y-97311967D01*
X187432787Y-97311971D01*
X187509583Y-97367767D01*
X187552249Y-97423097D01*
X187558228Y-97492710D01*
X187525622Y-97554505D01*
X187467365Y-97588233D01*
X187446973Y-97593437D01*
X187446962Y-97593441D01*
X187390415Y-97616863D01*
X188150589Y-98377037D01*
X188087007Y-98394075D01*
X187972993Y-98459901D01*
X187879901Y-98552993D01*
X187814075Y-98667007D01*
X187797037Y-98730589D01*
X187036863Y-97970415D01*
X187036862Y-97970415D01*
X187013446Y-98026947D01*
X187013431Y-98026987D01*
X186995457Y-98077939D01*
X186995455Y-98077946D01*
X186975000Y-98220219D01*
X186975000Y-99499785D01*
X186977893Y-99553762D01*
X186977893Y-99553764D01*
X187013438Y-99693030D01*
X187013442Y-99693043D01*
X187036862Y-99749584D01*
X187797037Y-98989410D01*
X187814075Y-99052993D01*
X187879901Y-99167007D01*
X187972993Y-99260099D01*
X188087007Y-99325925D01*
X188150589Y-99342962D01*
X187390414Y-100103135D01*
X187446960Y-100126557D01*
X187446986Y-100126567D01*
X187475621Y-100136669D01*
X187532294Y-100177534D01*
X187557876Y-100242552D01*
X187544246Y-100311080D01*
X187507256Y-100353924D01*
X187432782Y-100408032D01*
X187288028Y-100552786D01*
X187167715Y-100718386D01*
X187074781Y-100900776D01*
X187011522Y-101095465D01*
X186979500Y-101297648D01*
X186979500Y-101502351D01*
X187011522Y-101704534D01*
X187074781Y-101899223D01*
X187167715Y-102081613D01*
X187288028Y-102247213D01*
X187432786Y-102391971D01*
X187513559Y-102450655D01*
X187556225Y-102505984D01*
X187562204Y-102575598D01*
X187529599Y-102637393D01*
X187477565Y-102669358D01*
X187390396Y-102696521D01*
X187244811Y-102784530D01*
X187124530Y-102904811D01*
X187036522Y-103050393D01*
X186985913Y-103212807D01*
X186979500Y-103283386D01*
X186979500Y-104596613D01*
X186985913Y-104667192D01*
X187036522Y-104829606D01*
X187124530Y-104975188D01*
X187244811Y-105095469D01*
X187244813Y-105095470D01*
X187244815Y-105095472D01*
X187390394Y-105183478D01*
X187552804Y-105234086D01*
X187623384Y-105240500D01*
X187623387Y-105240500D01*
X188936613Y-105240500D01*
X188936616Y-105240500D01*
X189007196Y-105234086D01*
X189169606Y-105183478D01*
X189315185Y-105095472D01*
X189435472Y-104975185D01*
X189523478Y-104829606D01*
X189574086Y-104667196D01*
X189580500Y-104596616D01*
X189580500Y-103283384D01*
X189574086Y-103212804D01*
X189523478Y-103050394D01*
X189435472Y-102904815D01*
X189435470Y-102904813D01*
X189435469Y-102904811D01*
X189315188Y-102784530D01*
X189232892Y-102734780D01*
X189169606Y-102696522D01*
X189169604Y-102696521D01*
X189169602Y-102696520D01*
X189169603Y-102696520D01*
X189082435Y-102669358D01*
X189024287Y-102630621D01*
X188996313Y-102566595D01*
X189007395Y-102497610D01*
X189046441Y-102450654D01*
X189127215Y-102391969D01*
X189127215Y-102391968D01*
X189127219Y-102391966D01*
X189271966Y-102247219D01*
X189271968Y-102247215D01*
X189271971Y-102247213D01*
X189324732Y-102174590D01*
X189392287Y-102081610D01*
X189485220Y-101899219D01*
X189548477Y-101704534D01*
X189580500Y-101502352D01*
X189580500Y-101297648D01*
X189548477Y-101095466D01*
X189485220Y-100900781D01*
X189485218Y-100900778D01*
X189485218Y-100900776D01*
X189451503Y-100834607D01*
X189392287Y-100718390D01*
X189329946Y-100632584D01*
X189271971Y-100552786D01*
X189127213Y-100408028D01*
X188961614Y-100287715D01*
X188953410Y-100283535D01*
X188875703Y-100243941D01*
X188824908Y-100195968D01*
X188808113Y-100128147D01*
X188830650Y-100062012D01*
X188873546Y-100024099D01*
X188939503Y-99988843D01*
X188939515Y-99988837D01*
X189008913Y-99942465D01*
X188409410Y-99342962D01*
X188472993Y-99325925D01*
X188587007Y-99260099D01*
X188680099Y-99167007D01*
X188745925Y-99052993D01*
X188762962Y-98989410D01*
X189362465Y-99588913D01*
X189408837Y-99519515D01*
X189408838Y-99519511D01*
X189455509Y-99432198D01*
X189515814Y-99286612D01*
X189544555Y-99191864D01*
X189575298Y-99037302D01*
X189575298Y-99037299D01*
X189585000Y-98938789D01*
X189585000Y-98781210D01*
X189575298Y-98682700D01*
X189575298Y-98682697D01*
X189544555Y-98528135D01*
X189515814Y-98433387D01*
X189455509Y-98287801D01*
X189408844Y-98200498D01*
X189408838Y-98200488D01*
X189362465Y-98131085D01*
X188762962Y-98730588D01*
X188745925Y-98667007D01*
X188680099Y-98552993D01*
X188587007Y-98459901D01*
X188472993Y-98394075D01*
X188409410Y-98377037D01*
X189008912Y-97777534D01*
X188939511Y-97731161D01*
X188939500Y-97731155D01*
X188873545Y-97695900D01*
X188823701Y-97646937D01*
X188808241Y-97578799D01*
X188832073Y-97513119D01*
X188875702Y-97476059D01*
X188961610Y-97432287D01*
X189052745Y-97366074D01*
X189127213Y-97311971D01*
X189127215Y-97311968D01*
X189127219Y-97311966D01*
X189271966Y-97167219D01*
X189271968Y-97167215D01*
X189271971Y-97167213D01*
X189324732Y-97094590D01*
X189392287Y-97001610D01*
X189485220Y-96819219D01*
X189548477Y-96624534D01*
X189580500Y-96422352D01*
X189580500Y-96217648D01*
X189548477Y-96015466D01*
X189533670Y-95969896D01*
X189513452Y-95907669D01*
X189485220Y-95820781D01*
X189485218Y-95820778D01*
X189485218Y-95820776D01*
X189420274Y-95693318D01*
X189392287Y-95638390D01*
X189384556Y-95627749D01*
X189271971Y-95472786D01*
X189127213Y-95328028D01*
X188961614Y-95207715D01*
X188955006Y-95204348D01*
X188868917Y-95160483D01*
X188818123Y-95112511D01*
X188801328Y-95044690D01*
X188823865Y-94978555D01*
X188868917Y-94939516D01*
X188961610Y-94892287D01*
X189006635Y-94859575D01*
X189127213Y-94771971D01*
X189127215Y-94771968D01*
X189127219Y-94771966D01*
X189271966Y-94627219D01*
X189271968Y-94627215D01*
X189271971Y-94627213D01*
X189324732Y-94554590D01*
X189392287Y-94461610D01*
X189485220Y-94279219D01*
X189548477Y-94084534D01*
X189580500Y-93882352D01*
X189580500Y-93677648D01*
X189548477Y-93475466D01*
X189485220Y-93280781D01*
X189485218Y-93280778D01*
X189485218Y-93280776D01*
X189451503Y-93214607D01*
X189392287Y-93098390D01*
X189343453Y-93031175D01*
X189271971Y-92932786D01*
X189127213Y-92788028D01*
X188961614Y-92667715D01*
X188941521Y-92657477D01*
X188868917Y-92620483D01*
X188818123Y-92572511D01*
X188801328Y-92504690D01*
X188823865Y-92438555D01*
X188868917Y-92399516D01*
X188961610Y-92352287D01*
X189042607Y-92293440D01*
X189127213Y-92231971D01*
X189127215Y-92231968D01*
X189127219Y-92231966D01*
X189271966Y-92087219D01*
X189271968Y-92087215D01*
X189271971Y-92087213D01*
X189324732Y-92014590D01*
X189392287Y-91921610D01*
X189485220Y-91739219D01*
X189548477Y-91544534D01*
X189580500Y-91342352D01*
X189580500Y-91137648D01*
X189548477Y-90935466D01*
X189485220Y-90740781D01*
X189485218Y-90740778D01*
X189485218Y-90740776D01*
X189451503Y-90674607D01*
X189392287Y-90558390D01*
X189384556Y-90547749D01*
X189271971Y-90392786D01*
X189127213Y-90248028D01*
X188961614Y-90127715D01*
X188955006Y-90124348D01*
X188868917Y-90080483D01*
X188818123Y-90032511D01*
X188801328Y-89964690D01*
X188823865Y-89898555D01*
X188868917Y-89859516D01*
X188961610Y-89812287D01*
X188982770Y-89796913D01*
X189127213Y-89691971D01*
X189127215Y-89691968D01*
X189127219Y-89691966D01*
X189271966Y-89547219D01*
X189271968Y-89547215D01*
X189271971Y-89547213D01*
X189324732Y-89474590D01*
X189392287Y-89381610D01*
X189485220Y-89199219D01*
X189548477Y-89004534D01*
X189580500Y-88802352D01*
X189580500Y-88597648D01*
X189548477Y-88395466D01*
X189485220Y-88200781D01*
X189485218Y-88200778D01*
X189485218Y-88200776D01*
X189451503Y-88134607D01*
X189392287Y-88018390D01*
X189384556Y-88007749D01*
X189271971Y-87852786D01*
X189127213Y-87708028D01*
X188961614Y-87587715D01*
X188953410Y-87583535D01*
X188875703Y-87543941D01*
X188824908Y-87495968D01*
X188808113Y-87428147D01*
X188830650Y-87362012D01*
X188873546Y-87324099D01*
X188939503Y-87288843D01*
X188939515Y-87288837D01*
X189008913Y-87242465D01*
X188409410Y-86642962D01*
X188472993Y-86625925D01*
X188587007Y-86560099D01*
X188680099Y-86467007D01*
X188745925Y-86352993D01*
X188762962Y-86289410D01*
X189362465Y-86888913D01*
X189408837Y-86819515D01*
X189408838Y-86819511D01*
X189455509Y-86732198D01*
X189515814Y-86586612D01*
X189544555Y-86491864D01*
X189575298Y-86337302D01*
X189575298Y-86337299D01*
X189585000Y-86238789D01*
X189585000Y-86081210D01*
X189575298Y-85982700D01*
X189575298Y-85982697D01*
X189544555Y-85828135D01*
X189515814Y-85733387D01*
X189455509Y-85587801D01*
X189408844Y-85500498D01*
X189408838Y-85500488D01*
X189362465Y-85431085D01*
X188762962Y-86030588D01*
X188745925Y-85967007D01*
X188680099Y-85852993D01*
X188587007Y-85759901D01*
X188472993Y-85694075D01*
X188409410Y-85677037D01*
X189008912Y-85077534D01*
X188939511Y-85031161D01*
X188939500Y-85031155D01*
X188873545Y-84995900D01*
X188823701Y-84946937D01*
X188808241Y-84878799D01*
X188832073Y-84813119D01*
X188875702Y-84776059D01*
X188961610Y-84732287D01*
X189052745Y-84666074D01*
X189127213Y-84611971D01*
X189127215Y-84611968D01*
X189127219Y-84611966D01*
X189271966Y-84467219D01*
X189271968Y-84467215D01*
X189271971Y-84467213D01*
X189324732Y-84394590D01*
X189392287Y-84301610D01*
X189485220Y-84119219D01*
X189548477Y-83924534D01*
X189580500Y-83722352D01*
X189580500Y-83517648D01*
X189548477Y-83315466D01*
X189485220Y-83120781D01*
X189485218Y-83120778D01*
X189485218Y-83120776D01*
X189451503Y-83054607D01*
X189392287Y-82938390D01*
X189384556Y-82927749D01*
X189271971Y-82772786D01*
X189127213Y-82628028D01*
X188961614Y-82507715D01*
X188955006Y-82504348D01*
X188868917Y-82460483D01*
X188818123Y-82412511D01*
X188801328Y-82344690D01*
X188823865Y-82278555D01*
X188868917Y-82239516D01*
X188961610Y-82192287D01*
X189004456Y-82161158D01*
X189127213Y-82071971D01*
X189127215Y-82071968D01*
X189127219Y-82071966D01*
X189271966Y-81927219D01*
X189271968Y-81927215D01*
X189271971Y-81927213D01*
X189350650Y-81818919D01*
X189392287Y-81761610D01*
X189485220Y-81579219D01*
X189548477Y-81384534D01*
X189580500Y-81182352D01*
X189580500Y-80977648D01*
X189549725Y-80783343D01*
X189548477Y-80775465D01*
X189485218Y-80580776D01*
X189451503Y-80514607D01*
X189392287Y-80398390D01*
X189372061Y-80370551D01*
X189271971Y-80232786D01*
X189127213Y-80088028D01*
X188961614Y-79967715D01*
X188907436Y-79940110D01*
X188868917Y-79920483D01*
X188818123Y-79872511D01*
X188801328Y-79804690D01*
X188823865Y-79738555D01*
X188868917Y-79699516D01*
X188961610Y-79652287D01*
X189071554Y-79572409D01*
X189127213Y-79531971D01*
X189127215Y-79531968D01*
X189127219Y-79531966D01*
X189271966Y-79387219D01*
X189271968Y-79387215D01*
X189271971Y-79387213D01*
X189344264Y-79287708D01*
X189392287Y-79221610D01*
X189485220Y-79039219D01*
X189548477Y-78844534D01*
X189580500Y-78642352D01*
X189580500Y-78437648D01*
X189574768Y-78401459D01*
X189548477Y-78235465D01*
X189485218Y-78040776D01*
X189394237Y-77862218D01*
X189392287Y-77858390D01*
X189384556Y-77847749D01*
X189271971Y-77692786D01*
X189127213Y-77548028D01*
X188961614Y-77427715D01*
X188955006Y-77424348D01*
X188868917Y-77380483D01*
X188818123Y-77332511D01*
X188801328Y-77264690D01*
X188823865Y-77198555D01*
X188868917Y-77159516D01*
X188961610Y-77112287D01*
X188982770Y-77096913D01*
X189127213Y-76991971D01*
X189127215Y-76991968D01*
X189127219Y-76991966D01*
X189271966Y-76847219D01*
X189271968Y-76847215D01*
X189271971Y-76847213D01*
X189324732Y-76774590D01*
X189392287Y-76681610D01*
X189485220Y-76499219D01*
X189548477Y-76304534D01*
X189580500Y-76102352D01*
X189580500Y-75897648D01*
X189548477Y-75695466D01*
X189485220Y-75500781D01*
X189485218Y-75500778D01*
X189485218Y-75500776D01*
X189451503Y-75434607D01*
X189392287Y-75318390D01*
X189384556Y-75307749D01*
X189271971Y-75152786D01*
X189127213Y-75008028D01*
X188961614Y-74887715D01*
X188953410Y-74883535D01*
X188875703Y-74843941D01*
X188824908Y-74795968D01*
X188808113Y-74728147D01*
X188830650Y-74662012D01*
X188873546Y-74624099D01*
X188939503Y-74588843D01*
X188939515Y-74588837D01*
X189008913Y-74542465D01*
X188409410Y-73942962D01*
X188472993Y-73925925D01*
X188587007Y-73860099D01*
X188680099Y-73767007D01*
X188745925Y-73652993D01*
X188762962Y-73589410D01*
X189362465Y-74188913D01*
X189408837Y-74119515D01*
X189408838Y-74119511D01*
X189455509Y-74032198D01*
X189515814Y-73886612D01*
X189544555Y-73791864D01*
X189575298Y-73637302D01*
X189575298Y-73637299D01*
X189585000Y-73538789D01*
X189585000Y-73381210D01*
X189575298Y-73282700D01*
X189575298Y-73282697D01*
X189544555Y-73128135D01*
X189515814Y-73033387D01*
X189455509Y-72887801D01*
X189408844Y-72800498D01*
X189408838Y-72800488D01*
X189362465Y-72731085D01*
X188762962Y-73330588D01*
X188745925Y-73267007D01*
X188680099Y-73152993D01*
X188587007Y-73059901D01*
X188472993Y-72994075D01*
X188409410Y-72977037D01*
X189008912Y-72377534D01*
X188939511Y-72331161D01*
X188939500Y-72331155D01*
X188873545Y-72295900D01*
X188823701Y-72246937D01*
X188808241Y-72178799D01*
X188832073Y-72113119D01*
X188875702Y-72076059D01*
X188961610Y-72032287D01*
X189052745Y-71966074D01*
X189127213Y-71911971D01*
X189127215Y-71911968D01*
X189127219Y-71911966D01*
X189271966Y-71767219D01*
X189271968Y-71767215D01*
X189271971Y-71767213D01*
X189324732Y-71694590D01*
X189392287Y-71601610D01*
X189485220Y-71419219D01*
X189548477Y-71224534D01*
X189580500Y-71022352D01*
X189580500Y-70817648D01*
X189548477Y-70615466D01*
X189548476Y-70615462D01*
X189548476Y-70615461D01*
X189488571Y-70431094D01*
X189488570Y-70431093D01*
X189485220Y-70420781D01*
X189473433Y-70397648D01*
X193699500Y-70397648D01*
X193699500Y-70602351D01*
X193731522Y-70804534D01*
X193794781Y-70999223D01*
X193858691Y-71124653D01*
X193887585Y-71181359D01*
X193887715Y-71181613D01*
X194008028Y-71347213D01*
X194152786Y-71491971D01*
X194273226Y-71579474D01*
X194318390Y-71612287D01*
X194434607Y-71671503D01*
X194500776Y-71705218D01*
X194500778Y-71705218D01*
X194500781Y-71705220D01*
X194605137Y-71739127D01*
X194695465Y-71768477D01*
X194796557Y-71784488D01*
X194897648Y-71800500D01*
X194897649Y-71800500D01*
X195102351Y-71800500D01*
X195102352Y-71800500D01*
X195304534Y-71768477D01*
X195499219Y-71705220D01*
X195681610Y-71612287D01*
X195785997Y-71536446D01*
X195847213Y-71491971D01*
X195847215Y-71491968D01*
X195847219Y-71491966D01*
X195991966Y-71347219D01*
X195991968Y-71347215D01*
X195991971Y-71347213D01*
X196044732Y-71274590D01*
X196112287Y-71181610D01*
X196205220Y-70999219D01*
X196268477Y-70804534D01*
X196300500Y-70602352D01*
X196300500Y-70397648D01*
X197199500Y-70397648D01*
X197199500Y-70602351D01*
X197231522Y-70804534D01*
X197294781Y-70999223D01*
X197358691Y-71124653D01*
X197387585Y-71181359D01*
X197387715Y-71181613D01*
X197508028Y-71347213D01*
X197652786Y-71491971D01*
X197773226Y-71579474D01*
X197818390Y-71612287D01*
X197934607Y-71671503D01*
X198000776Y-71705218D01*
X198000778Y-71705218D01*
X198000781Y-71705220D01*
X198105137Y-71739127D01*
X198195465Y-71768477D01*
X198296557Y-71784488D01*
X198397648Y-71800500D01*
X198397649Y-71800500D01*
X198602351Y-71800500D01*
X198602352Y-71800500D01*
X198804534Y-71768477D01*
X198999219Y-71705220D01*
X199181610Y-71612287D01*
X199285997Y-71536446D01*
X199347213Y-71491971D01*
X199347215Y-71491968D01*
X199347219Y-71491966D01*
X199491966Y-71347219D01*
X199491968Y-71347215D01*
X199491971Y-71347213D01*
X199544732Y-71274590D01*
X199612287Y-71181610D01*
X199705220Y-70999219D01*
X199768477Y-70804534D01*
X199800500Y-70602352D01*
X199800500Y-70397682D01*
X200700000Y-70397682D01*
X200700000Y-70602317D01*
X200732009Y-70804417D01*
X200795244Y-70999031D01*
X200888141Y-71181350D01*
X200888147Y-71181359D01*
X200920523Y-71225921D01*
X200920524Y-71225922D01*
X201600000Y-70546446D01*
X201600000Y-70552661D01*
X201627259Y-70654394D01*
X201679920Y-70745606D01*
X201754394Y-70820080D01*
X201845606Y-70872741D01*
X201947339Y-70900000D01*
X201953553Y-70900000D01*
X201274076Y-71579474D01*
X201318650Y-71611859D01*
X201500968Y-71704755D01*
X201695582Y-71767990D01*
X201897683Y-71800000D01*
X202102317Y-71800000D01*
X202304417Y-71767990D01*
X202499031Y-71704755D01*
X202681349Y-71611859D01*
X202725921Y-71579474D01*
X202046447Y-70900000D01*
X202052661Y-70900000D01*
X202154394Y-70872741D01*
X202245606Y-70820080D01*
X202320080Y-70745606D01*
X202372741Y-70654394D01*
X202400000Y-70552661D01*
X202400000Y-70546447D01*
X203079474Y-71225921D01*
X203111859Y-71181349D01*
X203204755Y-70999031D01*
X203267990Y-70804417D01*
X203300000Y-70602317D01*
X203300000Y-70397682D01*
X204200000Y-70397682D01*
X204200000Y-70602317D01*
X204232009Y-70804417D01*
X204295244Y-70999031D01*
X204388141Y-71181350D01*
X204388147Y-71181359D01*
X204420523Y-71225921D01*
X204420524Y-71225922D01*
X205100000Y-70546446D01*
X205100000Y-70552661D01*
X205127259Y-70654394D01*
X205179920Y-70745606D01*
X205254394Y-70820080D01*
X205345606Y-70872741D01*
X205447339Y-70900000D01*
X205453553Y-70900000D01*
X204774076Y-71579474D01*
X204818650Y-71611859D01*
X205000968Y-71704755D01*
X205195582Y-71767990D01*
X205397683Y-71800000D01*
X205602317Y-71800000D01*
X205804417Y-71767990D01*
X205999031Y-71704755D01*
X206181349Y-71611859D01*
X206225921Y-71579474D01*
X205546447Y-70900000D01*
X205552661Y-70900000D01*
X205654394Y-70872741D01*
X205745606Y-70820080D01*
X205820080Y-70745606D01*
X205872741Y-70654394D01*
X205900000Y-70552661D01*
X205900000Y-70546447D01*
X206579474Y-71225921D01*
X206611859Y-71181349D01*
X206704755Y-70999031D01*
X206767990Y-70804417D01*
X206800000Y-70602317D01*
X206800000Y-70397682D01*
X206767990Y-70195582D01*
X206704755Y-70000968D01*
X206611859Y-69818650D01*
X206579474Y-69774077D01*
X206579474Y-69774076D01*
X205900000Y-70453551D01*
X205900000Y-70447339D01*
X205872741Y-70345606D01*
X205820080Y-70254394D01*
X205745606Y-70179920D01*
X205654394Y-70127259D01*
X205552661Y-70100000D01*
X205546446Y-70100000D01*
X206225922Y-69420524D01*
X206225921Y-69420523D01*
X206181359Y-69388147D01*
X206181350Y-69388141D01*
X205999031Y-69295244D01*
X205804417Y-69232009D01*
X205602317Y-69200000D01*
X205397683Y-69200000D01*
X205195582Y-69232009D01*
X205000968Y-69295244D01*
X204818644Y-69388143D01*
X204774077Y-69420523D01*
X204774077Y-69420524D01*
X205453554Y-70100000D01*
X205447339Y-70100000D01*
X205345606Y-70127259D01*
X205254394Y-70179920D01*
X205179920Y-70254394D01*
X205127259Y-70345606D01*
X205100000Y-70447339D01*
X205100000Y-70453553D01*
X204420524Y-69774077D01*
X204420523Y-69774077D01*
X204388143Y-69818644D01*
X204295244Y-70000968D01*
X204232009Y-70195582D01*
X204200000Y-70397682D01*
X203300000Y-70397682D01*
X203267990Y-70195582D01*
X203204755Y-70000968D01*
X203111859Y-69818650D01*
X203079474Y-69774077D01*
X203079474Y-69774076D01*
X202400000Y-70453551D01*
X202400000Y-70447339D01*
X202372741Y-70345606D01*
X202320080Y-70254394D01*
X202245606Y-70179920D01*
X202154394Y-70127259D01*
X202052661Y-70100000D01*
X202046446Y-70100000D01*
X202725922Y-69420524D01*
X202725921Y-69420523D01*
X202681359Y-69388147D01*
X202681350Y-69388141D01*
X202499031Y-69295244D01*
X202304417Y-69232009D01*
X202102317Y-69200000D01*
X201897683Y-69200000D01*
X201695582Y-69232009D01*
X201500968Y-69295244D01*
X201318644Y-69388143D01*
X201274077Y-69420523D01*
X201274077Y-69420524D01*
X201953554Y-70100000D01*
X201947339Y-70100000D01*
X201845606Y-70127259D01*
X201754394Y-70179920D01*
X201679920Y-70254394D01*
X201627259Y-70345606D01*
X201600000Y-70447339D01*
X201600000Y-70453553D01*
X200920524Y-69774077D01*
X200920523Y-69774077D01*
X200888143Y-69818644D01*
X200795244Y-70000968D01*
X200732009Y-70195582D01*
X200700000Y-70397682D01*
X199800500Y-70397682D01*
X199800500Y-70397648D01*
X199792257Y-70345606D01*
X199768477Y-70195465D01*
X199728614Y-70072781D01*
X199705220Y-70000781D01*
X199705218Y-70000778D01*
X199705218Y-70000776D01*
X199612419Y-69818650D01*
X199612287Y-69818390D01*
X199580092Y-69774077D01*
X199491971Y-69652786D01*
X199347213Y-69508028D01*
X199181613Y-69387715D01*
X199181612Y-69387714D01*
X199181610Y-69387713D01*
X199124653Y-69358691D01*
X198999223Y-69294781D01*
X198804534Y-69231522D01*
X198629995Y-69203878D01*
X198602352Y-69199500D01*
X198397648Y-69199500D01*
X198373329Y-69203351D01*
X198195465Y-69231522D01*
X198000776Y-69294781D01*
X197818386Y-69387715D01*
X197652786Y-69508028D01*
X197508028Y-69652786D01*
X197387715Y-69818386D01*
X197294781Y-70000776D01*
X197231522Y-70195465D01*
X197199500Y-70397648D01*
X196300500Y-70397648D01*
X196292257Y-70345606D01*
X196268477Y-70195465D01*
X196228614Y-70072781D01*
X196205220Y-70000781D01*
X196205218Y-70000778D01*
X196205218Y-70000776D01*
X196112419Y-69818650D01*
X196112287Y-69818390D01*
X196080092Y-69774077D01*
X195991971Y-69652786D01*
X195847213Y-69508028D01*
X195681613Y-69387715D01*
X195681612Y-69387714D01*
X195681610Y-69387713D01*
X195624653Y-69358691D01*
X195499223Y-69294781D01*
X195304534Y-69231522D01*
X195129995Y-69203878D01*
X195102352Y-69199500D01*
X194897648Y-69199500D01*
X194873329Y-69203351D01*
X194695465Y-69231522D01*
X194500776Y-69294781D01*
X194318386Y-69387715D01*
X194152786Y-69508028D01*
X194008028Y-69652786D01*
X193887715Y-69818386D01*
X193794781Y-70000776D01*
X193731522Y-70195465D01*
X193699500Y-70397648D01*
X189473433Y-70397648D01*
X189392287Y-70238390D01*
X189384556Y-70227749D01*
X189271971Y-70072786D01*
X189127213Y-69928028D01*
X188961614Y-69807715D01*
X188955006Y-69804348D01*
X188868917Y-69760483D01*
X188818123Y-69712511D01*
X188801328Y-69644690D01*
X188823865Y-69578555D01*
X188868917Y-69539516D01*
X188961610Y-69492287D01*
X188982770Y-69476913D01*
X189127213Y-69371971D01*
X189127215Y-69371968D01*
X189127219Y-69371966D01*
X189271966Y-69227219D01*
X189271968Y-69227215D01*
X189271971Y-69227213D01*
X189324732Y-69154590D01*
X189392287Y-69061610D01*
X189485220Y-68879219D01*
X189548477Y-68684534D01*
X189580500Y-68482352D01*
X189580500Y-68277648D01*
X189548477Y-68075466D01*
X189532497Y-68026286D01*
X189485218Y-67880776D01*
X189425390Y-67763359D01*
X189392284Y-67698385D01*
X189371661Y-67670000D01*
X213022769Y-67670000D01*
X214066988Y-67670000D01*
X214034075Y-67727007D01*
X214000000Y-67854174D01*
X214000000Y-67985826D01*
X214034075Y-68112993D01*
X214066988Y-68170000D01*
X213022769Y-68170000D01*
X213033242Y-68236126D01*
X213033242Y-68236129D01*
X213098904Y-68438217D01*
X213195379Y-68627557D01*
X213320272Y-68799459D01*
X213320276Y-68799464D01*
X213470535Y-68949723D01*
X213470540Y-68949727D01*
X213642442Y-69074620D01*
X213831782Y-69171095D01*
X214033870Y-69236757D01*
X214243754Y-69270000D01*
X214250000Y-69270000D01*
X214250000Y-68353012D01*
X214307007Y-68385925D01*
X214434174Y-68420000D01*
X214565826Y-68420000D01*
X214692993Y-68385925D01*
X214750000Y-68353012D01*
X214750000Y-69270000D01*
X214756246Y-69270000D01*
X214966127Y-69236757D01*
X214966130Y-69236757D01*
X215168217Y-69171095D01*
X215357557Y-69074620D01*
X215529459Y-68949727D01*
X215529464Y-68949723D01*
X215679723Y-68799464D01*
X215679727Y-68799459D01*
X215804620Y-68627557D01*
X215901095Y-68438217D01*
X215966757Y-68236129D01*
X215966757Y-68236126D01*
X215977231Y-68170000D01*
X214933012Y-68170000D01*
X214965925Y-68112993D01*
X215000000Y-67985826D01*
X215000000Y-67854174D01*
X214965925Y-67727007D01*
X214933012Y-67670000D01*
X215977231Y-67670000D01*
X215966757Y-67603873D01*
X215966757Y-67603870D01*
X215901095Y-67401782D01*
X215804620Y-67212442D01*
X215679727Y-67040540D01*
X215679723Y-67040535D01*
X215529464Y-66890276D01*
X215529459Y-66890272D01*
X215357557Y-66765379D01*
X215168217Y-66668904D01*
X214966129Y-66603242D01*
X214756246Y-66570000D01*
X214750000Y-66570000D01*
X214750000Y-67486988D01*
X214692993Y-67454075D01*
X214565826Y-67420000D01*
X214434174Y-67420000D01*
X214307007Y-67454075D01*
X214250000Y-67486988D01*
X214250000Y-66570000D01*
X214243754Y-66570000D01*
X214033872Y-66603242D01*
X214033869Y-66603242D01*
X213831782Y-66668904D01*
X213642442Y-66765379D01*
X213470540Y-66890272D01*
X213470535Y-66890276D01*
X213320276Y-67040535D01*
X213320272Y-67040540D01*
X213195379Y-67212442D01*
X213098904Y-67401782D01*
X213033242Y-67603870D01*
X213033242Y-67603873D01*
X213022769Y-67670000D01*
X189371661Y-67670000D01*
X189271971Y-67532786D01*
X189127213Y-67388028D01*
X188961614Y-67267715D01*
X188955006Y-67264348D01*
X188868917Y-67220483D01*
X188818123Y-67172511D01*
X188801328Y-67104690D01*
X188823865Y-67038555D01*
X188868917Y-66999516D01*
X188961610Y-66952287D01*
X189047493Y-66889890D01*
X189127213Y-66831971D01*
X189127215Y-66831968D01*
X189127219Y-66831966D01*
X189271966Y-66687219D01*
X189271968Y-66687215D01*
X189271971Y-66687213D01*
X189357493Y-66569500D01*
X189392287Y-66521610D01*
X189485220Y-66339219D01*
X189548477Y-66144534D01*
X189580500Y-65942352D01*
X189580500Y-65737648D01*
X189548477Y-65535466D01*
X189485220Y-65340781D01*
X189485218Y-65340778D01*
X189485218Y-65340776D01*
X189451503Y-65274607D01*
X189392287Y-65158390D01*
X189384556Y-65147749D01*
X189271971Y-64992786D01*
X189127213Y-64848028D01*
X188961614Y-64727715D01*
X188955006Y-64724348D01*
X188868917Y-64680483D01*
X188818123Y-64632511D01*
X188801328Y-64564690D01*
X188823865Y-64498555D01*
X188868917Y-64459516D01*
X188961610Y-64412287D01*
X188982770Y-64396913D01*
X189127213Y-64291971D01*
X189127215Y-64291968D01*
X189127219Y-64291966D01*
X189271966Y-64147219D01*
X189271968Y-64147215D01*
X189271971Y-64147213D01*
X189324732Y-64074590D01*
X189392287Y-63981610D01*
X189485220Y-63799219D01*
X189548477Y-63604534D01*
X189580500Y-63402352D01*
X189580500Y-63197648D01*
X189548477Y-62995466D01*
X189548476Y-62995462D01*
X189548476Y-62995461D01*
X189488571Y-62811094D01*
X189488570Y-62811093D01*
X189485220Y-62800781D01*
X189473433Y-62777648D01*
X193699500Y-62777648D01*
X193699500Y-62982351D01*
X193731522Y-63184534D01*
X193794781Y-63379223D01*
X193887715Y-63561613D01*
X194008028Y-63727213D01*
X194152786Y-63871971D01*
X194303694Y-63981610D01*
X194318390Y-63992287D01*
X194434607Y-64051503D01*
X194500776Y-64085218D01*
X194500778Y-64085218D01*
X194500781Y-64085220D01*
X194605137Y-64119127D01*
X194695465Y-64148477D01*
X194796557Y-64164488D01*
X194897648Y-64180500D01*
X194897649Y-64180500D01*
X195102351Y-64180500D01*
X195102352Y-64180500D01*
X195304534Y-64148477D01*
X195499219Y-64085220D01*
X195681610Y-63992287D01*
X195774590Y-63924732D01*
X195847213Y-63871971D01*
X195847215Y-63871968D01*
X195847219Y-63871966D01*
X195991966Y-63727219D01*
X195991968Y-63727215D01*
X195991971Y-63727213D01*
X196081101Y-63604534D01*
X196112287Y-63561610D01*
X196205220Y-63379219D01*
X196268477Y-63184534D01*
X196300500Y-62982352D01*
X196300500Y-62777648D01*
X197199500Y-62777648D01*
X197199500Y-62982351D01*
X197231522Y-63184534D01*
X197294781Y-63379223D01*
X197387715Y-63561613D01*
X197508028Y-63727213D01*
X197652786Y-63871971D01*
X197803694Y-63981610D01*
X197818390Y-63992287D01*
X197934607Y-64051503D01*
X198000776Y-64085218D01*
X198000778Y-64085218D01*
X198000781Y-64085220D01*
X198105137Y-64119127D01*
X198195465Y-64148477D01*
X198296557Y-64164488D01*
X198397648Y-64180500D01*
X198397649Y-64180500D01*
X198602351Y-64180500D01*
X198602352Y-64180500D01*
X198804534Y-64148477D01*
X198999219Y-64085220D01*
X199181610Y-63992287D01*
X199274590Y-63924732D01*
X199347213Y-63871971D01*
X199347215Y-63871968D01*
X199347219Y-63871966D01*
X199491966Y-63727219D01*
X199491968Y-63727215D01*
X199491971Y-63727213D01*
X199581101Y-63604534D01*
X199612287Y-63561610D01*
X199705220Y-63379219D01*
X199768477Y-63184534D01*
X199800500Y-62982352D01*
X199800500Y-62777648D01*
X200699500Y-62777648D01*
X200699500Y-62982351D01*
X200731522Y-63184534D01*
X200794781Y-63379223D01*
X200887715Y-63561613D01*
X201008028Y-63727213D01*
X201152786Y-63871971D01*
X201303694Y-63981610D01*
X201318390Y-63992287D01*
X201434607Y-64051503D01*
X201500776Y-64085218D01*
X201500778Y-64085218D01*
X201500781Y-64085220D01*
X201605137Y-64119127D01*
X201695465Y-64148477D01*
X201796557Y-64164488D01*
X201897648Y-64180500D01*
X201897649Y-64180500D01*
X202102351Y-64180500D01*
X202102352Y-64180500D01*
X202304534Y-64148477D01*
X202499219Y-64085220D01*
X202681610Y-63992287D01*
X202774590Y-63924732D01*
X202847213Y-63871971D01*
X202847215Y-63871968D01*
X202847219Y-63871966D01*
X202991966Y-63727219D01*
X202991968Y-63727215D01*
X202991971Y-63727213D01*
X203081101Y-63604534D01*
X203112287Y-63561610D01*
X203205220Y-63379219D01*
X203268477Y-63184534D01*
X203300500Y-62982352D01*
X203300500Y-62777648D01*
X204199500Y-62777648D01*
X204199500Y-62982351D01*
X204231522Y-63184534D01*
X204294781Y-63379223D01*
X204387715Y-63561613D01*
X204508028Y-63727213D01*
X204652786Y-63871971D01*
X204803694Y-63981610D01*
X204818390Y-63992287D01*
X204934607Y-64051503D01*
X205000776Y-64085218D01*
X205000778Y-64085218D01*
X205000781Y-64085220D01*
X205105137Y-64119127D01*
X205195465Y-64148477D01*
X205296557Y-64164488D01*
X205397648Y-64180500D01*
X205397649Y-64180500D01*
X205602351Y-64180500D01*
X205602352Y-64180500D01*
X205804534Y-64148477D01*
X205999219Y-64085220D01*
X206181610Y-63992287D01*
X206274590Y-63924732D01*
X206347213Y-63871971D01*
X206347215Y-63871968D01*
X206347219Y-63871966D01*
X206491966Y-63727219D01*
X206491968Y-63727215D01*
X206491971Y-63727213D01*
X206581101Y-63604534D01*
X206612287Y-63561610D01*
X206705220Y-63379219D01*
X206768477Y-63184534D01*
X206800500Y-62982352D01*
X206800500Y-62777648D01*
X206768477Y-62575466D01*
X206705220Y-62380781D01*
X206705218Y-62380778D01*
X206705218Y-62380776D01*
X206640583Y-62253924D01*
X206612287Y-62198390D01*
X206560629Y-62127288D01*
X206491971Y-62032786D01*
X206347213Y-61888028D01*
X206181613Y-61767715D01*
X206181612Y-61767714D01*
X206181610Y-61767713D01*
X206124653Y-61738691D01*
X205999223Y-61674781D01*
X205804534Y-61611522D01*
X205629995Y-61583878D01*
X205602352Y-61579500D01*
X205397648Y-61579500D01*
X205373329Y-61583351D01*
X205195465Y-61611522D01*
X205000776Y-61674781D01*
X204818386Y-61767715D01*
X204652786Y-61888028D01*
X204508028Y-62032786D01*
X204387715Y-62198386D01*
X204294781Y-62380776D01*
X204231522Y-62575465D01*
X204199500Y-62777648D01*
X203300500Y-62777648D01*
X203268477Y-62575466D01*
X203205220Y-62380781D01*
X203205218Y-62380778D01*
X203205218Y-62380776D01*
X203140583Y-62253924D01*
X203112287Y-62198390D01*
X203060629Y-62127288D01*
X202991971Y-62032786D01*
X202847213Y-61888028D01*
X202681613Y-61767715D01*
X202681612Y-61767714D01*
X202681610Y-61767713D01*
X202624653Y-61738691D01*
X202499223Y-61674781D01*
X202304534Y-61611522D01*
X202129995Y-61583878D01*
X202102352Y-61579500D01*
X201897648Y-61579500D01*
X201873329Y-61583351D01*
X201695465Y-61611522D01*
X201500776Y-61674781D01*
X201318386Y-61767715D01*
X201152786Y-61888028D01*
X201008028Y-62032786D01*
X200887715Y-62198386D01*
X200794781Y-62380776D01*
X200731522Y-62575465D01*
X200699500Y-62777648D01*
X199800500Y-62777648D01*
X199768477Y-62575466D01*
X199705220Y-62380781D01*
X199705218Y-62380778D01*
X199705218Y-62380776D01*
X199640583Y-62253924D01*
X199612287Y-62198390D01*
X199560629Y-62127288D01*
X199491971Y-62032786D01*
X199347213Y-61888028D01*
X199181613Y-61767715D01*
X199181612Y-61767714D01*
X199181610Y-61767713D01*
X199124653Y-61738691D01*
X198999223Y-61674781D01*
X198804534Y-61611522D01*
X198629995Y-61583878D01*
X198602352Y-61579500D01*
X198397648Y-61579500D01*
X198373329Y-61583351D01*
X198195465Y-61611522D01*
X198000776Y-61674781D01*
X197818386Y-61767715D01*
X197652786Y-61888028D01*
X197508028Y-62032786D01*
X197387715Y-62198386D01*
X197294781Y-62380776D01*
X197231522Y-62575465D01*
X197199500Y-62777648D01*
X196300500Y-62777648D01*
X196268477Y-62575466D01*
X196205220Y-62380781D01*
X196205218Y-62380778D01*
X196205218Y-62380776D01*
X196140583Y-62253924D01*
X196112287Y-62198390D01*
X196060629Y-62127288D01*
X195991971Y-62032786D01*
X195847213Y-61888028D01*
X195681613Y-61767715D01*
X195681612Y-61767714D01*
X195681610Y-61767713D01*
X195624653Y-61738691D01*
X195499223Y-61674781D01*
X195304534Y-61611522D01*
X195129995Y-61583878D01*
X195102352Y-61579500D01*
X194897648Y-61579500D01*
X194873329Y-61583351D01*
X194695465Y-61611522D01*
X194500776Y-61674781D01*
X194318386Y-61767715D01*
X194152786Y-61888028D01*
X194008028Y-62032786D01*
X193887715Y-62198386D01*
X193794781Y-62380776D01*
X193731522Y-62575465D01*
X193699500Y-62777648D01*
X189473433Y-62777648D01*
X189392287Y-62618390D01*
X189361101Y-62575466D01*
X189271971Y-62452786D01*
X189127213Y-62308028D01*
X188961614Y-62187715D01*
X188953410Y-62183535D01*
X188875703Y-62143941D01*
X188824908Y-62095968D01*
X188808113Y-62028147D01*
X188830650Y-61962012D01*
X188873546Y-61924099D01*
X188939503Y-61888843D01*
X188939515Y-61888837D01*
X189008913Y-61842465D01*
X188409410Y-61242962D01*
X188472993Y-61225925D01*
X188587007Y-61160099D01*
X188680099Y-61067007D01*
X188745925Y-60952993D01*
X188762962Y-60889410D01*
X189362465Y-61488913D01*
X189408837Y-61419515D01*
X189408838Y-61419511D01*
X189455509Y-61332198D01*
X189515814Y-61186612D01*
X189544555Y-61091864D01*
X189575298Y-60937302D01*
X189575298Y-60937299D01*
X189585000Y-60838789D01*
X189585000Y-60681210D01*
X189575298Y-60582700D01*
X189575298Y-60582697D01*
X189544555Y-60428135D01*
X189515814Y-60333387D01*
X189455509Y-60187801D01*
X189408844Y-60100498D01*
X189408832Y-60100478D01*
X189321295Y-59969469D01*
X189321291Y-59969463D01*
X189258485Y-59892935D01*
X189147064Y-59781514D01*
X189071931Y-59719853D01*
X189032596Y-59662107D01*
X189030726Y-59592262D01*
X189066914Y-59532494D01*
X189129670Y-59501778D01*
X189150596Y-59500000D01*
X191000000Y-59500000D01*
X191000000Y-57202155D01*
X212435000Y-57202155D01*
X212435000Y-57750000D01*
X213179670Y-57750000D01*
X213159925Y-57769745D01*
X213110556Y-57855255D01*
X213085000Y-57950630D01*
X213085000Y-58049370D01*
X213110556Y-58144745D01*
X213159925Y-58230255D01*
X213179670Y-58250000D01*
X212435000Y-58250000D01*
X212435000Y-58797844D01*
X212441401Y-58857372D01*
X212441403Y-58857379D01*
X212491645Y-58992086D01*
X212491649Y-58992093D01*
X212577809Y-59107187D01*
X212577812Y-59107190D01*
X212692906Y-59193350D01*
X212692913Y-59193354D01*
X212827620Y-59243596D01*
X212827627Y-59243598D01*
X212887155Y-59249999D01*
X212887172Y-59250000D01*
X213210000Y-59250000D01*
X213210000Y-58280330D01*
X213229745Y-58300075D01*
X213315255Y-58349444D01*
X213410630Y-58375000D01*
X213509370Y-58375000D01*
X213604745Y-58349444D01*
X213690255Y-58300075D01*
X213704500Y-58285830D01*
X213704500Y-58326002D01*
X213707617Y-58341671D01*
X213710000Y-58365865D01*
X213710000Y-59250000D01*
X214032828Y-59250000D01*
X214032844Y-59249999D01*
X214092372Y-59243598D01*
X214092376Y-59243597D01*
X214227089Y-59193352D01*
X214227896Y-59192748D01*
X214228845Y-59192393D01*
X214234876Y-59189101D01*
X214235349Y-59189967D01*
X214293360Y-59168329D01*
X214349661Y-59177451D01*
X214430873Y-59211091D01*
X214594288Y-59243596D01*
X214628992Y-59250499D01*
X214628996Y-59250500D01*
X214628997Y-59250500D01*
X214831004Y-59250500D01*
X214831005Y-59250499D01*
X215029127Y-59211091D01*
X215215756Y-59133786D01*
X215296110Y-59080094D01*
X215362786Y-59059217D01*
X215430166Y-59077701D01*
X215433865Y-59080078D01*
X215514244Y-59133786D01*
X215700873Y-59211091D01*
X215864288Y-59243596D01*
X215898992Y-59250499D01*
X215898996Y-59250500D01*
X215898997Y-59250500D01*
X216101004Y-59250500D01*
X216101005Y-59250499D01*
X216299127Y-59211091D01*
X216485756Y-59133786D01*
X216653718Y-59021558D01*
X216796558Y-58878718D01*
X216908786Y-58710756D01*
X216986091Y-58524127D01*
X217025500Y-58326003D01*
X217025500Y-57673997D01*
X216986091Y-57475873D01*
X216908786Y-57289244D01*
X216908784Y-57289241D01*
X216908782Y-57289237D01*
X216796558Y-57121281D01*
X216653718Y-56978441D01*
X216485762Y-56866217D01*
X216485752Y-56866212D01*
X216299127Y-56788909D01*
X216299119Y-56788907D01*
X216101007Y-56749500D01*
X216101003Y-56749500D01*
X215898997Y-56749500D01*
X215898992Y-56749500D01*
X215700880Y-56788907D01*
X215700872Y-56788909D01*
X215514244Y-56866213D01*
X215446906Y-56911207D01*
X215437172Y-56917712D01*
X215433891Y-56919904D01*
X215367213Y-56940782D01*
X215299833Y-56922297D01*
X215296109Y-56919904D01*
X215292828Y-56917712D01*
X215255563Y-56892812D01*
X215215755Y-56866213D01*
X215029127Y-56788909D01*
X215029119Y-56788907D01*
X214831007Y-56749500D01*
X214831003Y-56749500D01*
X214628997Y-56749500D01*
X214628992Y-56749500D01*
X214430880Y-56788907D01*
X214430868Y-56788910D01*
X214349661Y-56822547D01*
X214280191Y-56830016D01*
X214235140Y-56810405D01*
X214234872Y-56810897D01*
X214229374Y-56807894D01*
X214227895Y-56807251D01*
X214227086Y-56806645D01*
X214092379Y-56756403D01*
X214092372Y-56756401D01*
X214032844Y-56750000D01*
X213710000Y-56750000D01*
X213710000Y-57634134D01*
X213707617Y-57658326D01*
X213704500Y-57673995D01*
X213704500Y-57714170D01*
X213690255Y-57699925D01*
X213604745Y-57650556D01*
X213509370Y-57625000D01*
X213410630Y-57625000D01*
X213315255Y-57650556D01*
X213229745Y-57699925D01*
X213210000Y-57719670D01*
X213210000Y-56750000D01*
X212887155Y-56750000D01*
X212827627Y-56756401D01*
X212827620Y-56756403D01*
X212692913Y-56806645D01*
X212692906Y-56806649D01*
X212577812Y-56892809D01*
X212577809Y-56892812D01*
X212491649Y-57007906D01*
X212491645Y-57007913D01*
X212441403Y-57142620D01*
X212441401Y-57142627D01*
X212435000Y-57202155D01*
X191000000Y-57202155D01*
X191000000Y-55375999D01*
X191824500Y-55375999D01*
X191824500Y-55624000D01*
X191863286Y-55868880D01*
X191863294Y-55868931D01*
X191939927Y-56104782D01*
X192052511Y-56325742D01*
X192198276Y-56526370D01*
X192373630Y-56701724D01*
X192574258Y-56847489D01*
X192795218Y-56960073D01*
X193031069Y-57036706D01*
X193122920Y-57051253D01*
X193276000Y-57075500D01*
X193276005Y-57075500D01*
X193524000Y-57075500D01*
X193660070Y-57053947D01*
X193768931Y-57036706D01*
X194004782Y-56960073D01*
X194225742Y-56847489D01*
X194426370Y-56701724D01*
X194601724Y-56526370D01*
X194747489Y-56325742D01*
X194860073Y-56104782D01*
X194936706Y-55868931D01*
X194969311Y-55663072D01*
X194975500Y-55624000D01*
X194975500Y-55375999D01*
X194936706Y-55131072D01*
X194936706Y-55131069D01*
X194860073Y-54895218D01*
X194747489Y-54674258D01*
X194711689Y-54624983D01*
X196424500Y-54624983D01*
X196424500Y-56375001D01*
X196424501Y-56375018D01*
X196435000Y-56477796D01*
X196435001Y-56477799D01*
X196451097Y-56526372D01*
X196490186Y-56644334D01*
X196582288Y-56793656D01*
X196706344Y-56917712D01*
X196855666Y-57009814D01*
X197022203Y-57064999D01*
X197124991Y-57075500D01*
X198875008Y-57075499D01*
X198977797Y-57064999D01*
X199144334Y-57009814D01*
X199293656Y-56917712D01*
X199417712Y-56793656D01*
X199509814Y-56644334D01*
X199564999Y-56477797D01*
X199575500Y-56375009D01*
X199575499Y-55424300D01*
X199575499Y-54625013D01*
X200625000Y-54625013D01*
X200625000Y-55250000D01*
X201680384Y-55250000D01*
X201664185Y-55278058D01*
X201625000Y-55424300D01*
X201625000Y-55575700D01*
X201664185Y-55721942D01*
X201680384Y-55750000D01*
X200625001Y-55750000D01*
X200625001Y-56374986D01*
X200635494Y-56477697D01*
X200690641Y-56644119D01*
X200690643Y-56644124D01*
X200782684Y-56793345D01*
X200906654Y-56917315D01*
X201055875Y-57009356D01*
X201055880Y-57009358D01*
X201222302Y-57064505D01*
X201222309Y-57064506D01*
X201325019Y-57074999D01*
X201949999Y-57074999D01*
X201950000Y-57074998D01*
X201950000Y-56019615D01*
X201978058Y-56035815D01*
X202124300Y-56075000D01*
X202275700Y-56075000D01*
X202421942Y-56035815D01*
X202450000Y-56019615D01*
X202450000Y-57074999D01*
X203074972Y-57074999D01*
X203074986Y-57074998D01*
X203177697Y-57064505D01*
X203344119Y-57009358D01*
X203344124Y-57009356D01*
X203493345Y-56917315D01*
X203617315Y-56793345D01*
X203709356Y-56644124D01*
X203709358Y-56644119D01*
X203764505Y-56477697D01*
X203764506Y-56477690D01*
X203774999Y-56374986D01*
X203775000Y-56374973D01*
X203775000Y-55750000D01*
X202719616Y-55750000D01*
X202735815Y-55721942D01*
X202775000Y-55575700D01*
X202775000Y-55424300D01*
X202762058Y-55375999D01*
X205224500Y-55375999D01*
X205224500Y-55624000D01*
X205263286Y-55868880D01*
X205263294Y-55868931D01*
X205339927Y-56104782D01*
X205452511Y-56325742D01*
X205598276Y-56526370D01*
X205773630Y-56701724D01*
X205974258Y-56847489D01*
X206195218Y-56960073D01*
X206431069Y-57036706D01*
X206522920Y-57051253D01*
X206676000Y-57075500D01*
X206676005Y-57075500D01*
X206924000Y-57075500D01*
X207060070Y-57053947D01*
X207168931Y-57036706D01*
X207404782Y-56960073D01*
X207625742Y-56847489D01*
X207826370Y-56701724D01*
X208001724Y-56526370D01*
X208147489Y-56325742D01*
X208260073Y-56104782D01*
X208336706Y-55868931D01*
X208336715Y-55868872D01*
X228499500Y-55868872D01*
X228499500Y-56131127D01*
X228525123Y-56325742D01*
X228533730Y-56391116D01*
X228601579Y-56644334D01*
X228601602Y-56644418D01*
X228601605Y-56644428D01*
X228701953Y-56886690D01*
X228701958Y-56886700D01*
X228833075Y-57113803D01*
X228992718Y-57321851D01*
X228992726Y-57321860D01*
X229178140Y-57507274D01*
X229178148Y-57507281D01*
X229386196Y-57666924D01*
X229613299Y-57798041D01*
X229613309Y-57798046D01*
X229855571Y-57898394D01*
X229855581Y-57898398D01*
X230108884Y-57966270D01*
X230368880Y-58000500D01*
X230368887Y-58000500D01*
X230631113Y-58000500D01*
X230631120Y-58000500D01*
X230891116Y-57966270D01*
X231144419Y-57898398D01*
X231386697Y-57798043D01*
X231613803Y-57666924D01*
X231821851Y-57507282D01*
X231821855Y-57507277D01*
X231821860Y-57507274D01*
X232007274Y-57321860D01*
X232007277Y-57321855D01*
X232007282Y-57321851D01*
X232166924Y-57113803D01*
X232298043Y-56886697D01*
X232398398Y-56644419D01*
X232466270Y-56391116D01*
X232500500Y-56131120D01*
X232500500Y-55868880D01*
X232466270Y-55608884D01*
X232398398Y-55355581D01*
X232311977Y-55146942D01*
X232298046Y-55113309D01*
X232298041Y-55113299D01*
X232166924Y-54886196D01*
X232007281Y-54678148D01*
X232007274Y-54678140D01*
X231821860Y-54492726D01*
X231821851Y-54492718D01*
X231613803Y-54333075D01*
X231386700Y-54201958D01*
X231386690Y-54201953D01*
X231144428Y-54101605D01*
X231144421Y-54101603D01*
X231144419Y-54101602D01*
X230891116Y-54033730D01*
X230833339Y-54026123D01*
X230631127Y-53999500D01*
X230631120Y-53999500D01*
X230368880Y-53999500D01*
X230368872Y-53999500D01*
X230137772Y-54029926D01*
X230108884Y-54033730D01*
X229855581Y-54101602D01*
X229855571Y-54101605D01*
X229613309Y-54201953D01*
X229613299Y-54201958D01*
X229386196Y-54333075D01*
X229178148Y-54492718D01*
X228992718Y-54678148D01*
X228833075Y-54886196D01*
X228701958Y-55113299D01*
X228701953Y-55113309D01*
X228601605Y-55355571D01*
X228601602Y-55355581D01*
X228533730Y-55608885D01*
X228499500Y-55868872D01*
X208336715Y-55868872D01*
X208369311Y-55663072D01*
X208375500Y-55624000D01*
X208375500Y-55375999D01*
X208336706Y-55131072D01*
X208336706Y-55131069D01*
X208260073Y-54895218D01*
X208147489Y-54674258D01*
X208001724Y-54473630D01*
X207826370Y-54298276D01*
X207625742Y-54152511D01*
X207404782Y-54039927D01*
X207168931Y-53963294D01*
X207168929Y-53963293D01*
X207168927Y-53963293D01*
X206924000Y-53924500D01*
X206923995Y-53924500D01*
X206676005Y-53924500D01*
X206676000Y-53924500D01*
X206431072Y-53963293D01*
X206195215Y-54039928D01*
X205974257Y-54152511D01*
X205859792Y-54235675D01*
X205773630Y-54298276D01*
X205773628Y-54298278D01*
X205773627Y-54298278D01*
X205598278Y-54473627D01*
X205598278Y-54473628D01*
X205598276Y-54473630D01*
X205584408Y-54492718D01*
X205452511Y-54674257D01*
X205339928Y-54895215D01*
X205263293Y-55131072D01*
X205224500Y-55375999D01*
X202762058Y-55375999D01*
X202735815Y-55278058D01*
X202719616Y-55250000D01*
X203774999Y-55250000D01*
X203774999Y-54625028D01*
X203774998Y-54625013D01*
X203764505Y-54522302D01*
X203709358Y-54355880D01*
X203709356Y-54355875D01*
X203617315Y-54206654D01*
X203493345Y-54082684D01*
X203344124Y-53990643D01*
X203344119Y-53990641D01*
X203177697Y-53935494D01*
X203177690Y-53935493D01*
X203074986Y-53925000D01*
X202450000Y-53925000D01*
X202450000Y-54980384D01*
X202421942Y-54964185D01*
X202275700Y-54925000D01*
X202124300Y-54925000D01*
X201978058Y-54964185D01*
X201950000Y-54980384D01*
X201950000Y-53925000D01*
X201325028Y-53925000D01*
X201325012Y-53925001D01*
X201222302Y-53935494D01*
X201055880Y-53990641D01*
X201055875Y-53990643D01*
X200906654Y-54082684D01*
X200782684Y-54206654D01*
X200690643Y-54355875D01*
X200690641Y-54355880D01*
X200635494Y-54522302D01*
X200635493Y-54522309D01*
X200625000Y-54625013D01*
X199575499Y-54625013D01*
X199575499Y-54624998D01*
X199575498Y-54624981D01*
X199564999Y-54522203D01*
X199564998Y-54522200D01*
X199555231Y-54492726D01*
X199509814Y-54355666D01*
X199417712Y-54206344D01*
X199293656Y-54082288D01*
X199200888Y-54025069D01*
X199144336Y-53990187D01*
X199144331Y-53990185D01*
X199142862Y-53989698D01*
X198977797Y-53935001D01*
X198977795Y-53935000D01*
X198875010Y-53924500D01*
X197124998Y-53924500D01*
X197124981Y-53924501D01*
X197022203Y-53935000D01*
X197022200Y-53935001D01*
X196855668Y-53990185D01*
X196855663Y-53990187D01*
X196706342Y-54082289D01*
X196582289Y-54206342D01*
X196490187Y-54355663D01*
X196490185Y-54355668D01*
X196490115Y-54355880D01*
X196435001Y-54522203D01*
X196435001Y-54522204D01*
X196435000Y-54522204D01*
X196424500Y-54624983D01*
X194711689Y-54624983D01*
X194601724Y-54473630D01*
X194426370Y-54298276D01*
X194225742Y-54152511D01*
X194004782Y-54039927D01*
X193768931Y-53963294D01*
X193768929Y-53963293D01*
X193768927Y-53963293D01*
X193524000Y-53924500D01*
X193523995Y-53924500D01*
X193276005Y-53924500D01*
X193276000Y-53924500D01*
X193031072Y-53963293D01*
X192795215Y-54039928D01*
X192574257Y-54152511D01*
X192459792Y-54235675D01*
X192373630Y-54298276D01*
X192373628Y-54298278D01*
X192373627Y-54298278D01*
X192198278Y-54473627D01*
X192198278Y-54473628D01*
X192198276Y-54473630D01*
X192184408Y-54492718D01*
X192052511Y-54674257D01*
X191939928Y-54895215D01*
X191863293Y-55131072D01*
X191824500Y-55375999D01*
X191000000Y-55375999D01*
X191000000Y-52624500D01*
X191019685Y-52557461D01*
X191072489Y-52511706D01*
X191124000Y-52500500D01*
X230434108Y-52500500D01*
X230496949Y-52500500D01*
X230503032Y-52500648D01*
X230836929Y-52517052D01*
X230849037Y-52518245D01*
X230862116Y-52520185D01*
X231176699Y-52566849D01*
X231188617Y-52569219D01*
X231509951Y-52649709D01*
X231521588Y-52653240D01*
X231592806Y-52678722D01*
X231833467Y-52764832D01*
X231844688Y-52769479D01*
X232144163Y-52911120D01*
X232154871Y-52916844D01*
X232438988Y-53087137D01*
X232449106Y-53093897D01*
X232715170Y-53291224D01*
X232724576Y-53298944D01*
X232970013Y-53521395D01*
X232978604Y-53529986D01*
X233165755Y-53736475D01*
X233201055Y-53775423D01*
X233208775Y-53784829D01*
X233406102Y-54050893D01*
X233412862Y-54061011D01*
X233575931Y-54333076D01*
X233583148Y-54345116D01*
X233588883Y-54355844D01*
X233716190Y-54625013D01*
X233730514Y-54655297D01*
X233735170Y-54666540D01*
X233846759Y-54978411D01*
X233850292Y-54990055D01*
X233930777Y-55311369D01*
X233933151Y-55323305D01*
X233981754Y-55650962D01*
X233982947Y-55663071D01*
X233999351Y-55996966D01*
X233999500Y-56003051D01*
X233999500Y-72876000D01*
X233979815Y-72943039D01*
X233927011Y-72988794D01*
X233875500Y-73000000D01*
X230624500Y-73000000D01*
X230557461Y-72980315D01*
X230511706Y-72927511D01*
X230500500Y-72876000D01*
X230500500Y-69030758D01*
X230520185Y-68963719D01*
X230536819Y-68943077D01*
X230600677Y-68879219D01*
X230680104Y-68799792D01*
X230680106Y-68799788D01*
X230680109Y-68799786D01*
X230805048Y-68627820D01*
X230805047Y-68627820D01*
X230805051Y-68627816D01*
X230901557Y-68438412D01*
X230967246Y-68236243D01*
X231000500Y-68026287D01*
X231000500Y-67813713D01*
X230967246Y-67603757D01*
X230901557Y-67401588D01*
X230805051Y-67212184D01*
X230805049Y-67212181D01*
X230805048Y-67212179D01*
X230680109Y-67040213D01*
X230529786Y-66889890D01*
X230357820Y-66764951D01*
X230168414Y-66668444D01*
X230168413Y-66668443D01*
X230168412Y-66668443D01*
X229966243Y-66602754D01*
X229966241Y-66602753D01*
X229966240Y-66602753D01*
X229804957Y-66577208D01*
X229756287Y-66569500D01*
X229243713Y-66569500D01*
X229195042Y-66577208D01*
X229033760Y-66602753D01*
X228831585Y-66668444D01*
X228642179Y-66764951D01*
X228470213Y-66889890D01*
X228319890Y-67040213D01*
X228194951Y-67212179D01*
X228098444Y-67401585D01*
X228032753Y-67603760D01*
X228031291Y-67612993D01*
X227999500Y-67813713D01*
X227999500Y-68026287D01*
X228032754Y-68236243D01*
X228046207Y-68277648D01*
X228098444Y-68438414D01*
X228194951Y-68627820D01*
X228319890Y-68799786D01*
X228463181Y-68943077D01*
X228496666Y-69004400D01*
X228499500Y-69030758D01*
X228499500Y-72876000D01*
X228479815Y-72943039D01*
X228427011Y-72988794D01*
X228375500Y-73000000D01*
X190000000Y-73000000D01*
X190000000Y-116375500D01*
X189980315Y-116442539D01*
X189927511Y-116488294D01*
X189876000Y-116499500D01*
X163503051Y-116499500D01*
X163496968Y-116499351D01*
X163476900Y-116498365D01*
X163163071Y-116482947D01*
X163150962Y-116481754D01*
X162823305Y-116433151D01*
X162811369Y-116430777D01*
X162490055Y-116350292D01*
X162478411Y-116346759D01*
X162166540Y-116235170D01*
X162155301Y-116230515D01*
X161855844Y-116088883D01*
X161845121Y-116083150D01*
X161561011Y-115912862D01*
X161550893Y-115906102D01*
X161284829Y-115708775D01*
X161275423Y-115701055D01*
X161236475Y-115665755D01*
X161029986Y-115478604D01*
X161021395Y-115470013D01*
X160798944Y-115224576D01*
X160791224Y-115215170D01*
X160691034Y-115080080D01*
X160593895Y-114949103D01*
X160587137Y-114938988D01*
X160416844Y-114654871D01*
X160411120Y-114644163D01*
X160269479Y-114344688D01*
X160264829Y-114333459D01*
X160153240Y-114021588D01*
X160149707Y-114009944D01*
X160118836Y-113886700D01*
X160069219Y-113688617D01*
X160066848Y-113676694D01*
X160062060Y-113644419D01*
X160018245Y-113349037D01*
X160017052Y-113336927D01*
X160000649Y-113003032D01*
X160000500Y-112996948D01*
X160000500Y-112868872D01*
X161499500Y-112868872D01*
X161499500Y-113131127D01*
X161508107Y-113196496D01*
X161533730Y-113391116D01*
X161586483Y-113587993D01*
X161601602Y-113644418D01*
X161601605Y-113644428D01*
X161701953Y-113886690D01*
X161701958Y-113886700D01*
X161833075Y-114113803D01*
X161992718Y-114321851D01*
X161992726Y-114321860D01*
X162178140Y-114507274D01*
X162178148Y-114507281D01*
X162386196Y-114666924D01*
X162613299Y-114798041D01*
X162613309Y-114798046D01*
X162855571Y-114898394D01*
X162855581Y-114898398D01*
X163108884Y-114966270D01*
X163368880Y-115000500D01*
X163368887Y-115000500D01*
X163631113Y-115000500D01*
X163631120Y-115000500D01*
X163891116Y-114966270D01*
X164144419Y-114898398D01*
X164386697Y-114798043D01*
X164613803Y-114666924D01*
X164821851Y-114507282D01*
X164821855Y-114507277D01*
X164821860Y-114507274D01*
X165007274Y-114321860D01*
X165007277Y-114321855D01*
X165007282Y-114321851D01*
X165166924Y-114113803D01*
X165298043Y-113886697D01*
X165398398Y-113644419D01*
X165466270Y-113391116D01*
X165500500Y-113131120D01*
X165500500Y-112868880D01*
X165466270Y-112608884D01*
X165398398Y-112355581D01*
X165398394Y-112355571D01*
X165298046Y-112113309D01*
X165298041Y-112113299D01*
X165166924Y-111886196D01*
X165007281Y-111678148D01*
X165007274Y-111678140D01*
X164821860Y-111492726D01*
X164821851Y-111492718D01*
X164613803Y-111333075D01*
X164386700Y-111201958D01*
X164386690Y-111201953D01*
X164144428Y-111101605D01*
X164144421Y-111101603D01*
X164144419Y-111101602D01*
X163891116Y-111033730D01*
X163833339Y-111026123D01*
X163631127Y-110999500D01*
X163631120Y-110999500D01*
X163368880Y-110999500D01*
X163368872Y-110999500D01*
X163137772Y-111029926D01*
X163108884Y-111033730D01*
X162855581Y-111101602D01*
X162855571Y-111101605D01*
X162613309Y-111201953D01*
X162613299Y-111201958D01*
X162386196Y-111333075D01*
X162178148Y-111492718D01*
X161992718Y-111678148D01*
X161833075Y-111886196D01*
X161701958Y-112113299D01*
X161701953Y-112113309D01*
X161601605Y-112355571D01*
X161601602Y-112355581D01*
X161533730Y-112608885D01*
X161499500Y-112868872D01*
X160000500Y-112868872D01*
X160000500Y-80370551D01*
X160020185Y-80303512D01*
X160072989Y-80257757D01*
X160142147Y-80247813D01*
X160205703Y-80276838D01*
X160224815Y-80297662D01*
X160355483Y-80477510D01*
X160522490Y-80644517D01*
X160713567Y-80783343D01*
X160812991Y-80834002D01*
X160924003Y-80890566D01*
X160924005Y-80890566D01*
X160924008Y-80890568D01*
X161044412Y-80929689D01*
X161148631Y-80963553D01*
X161381903Y-81000500D01*
X161381908Y-81000500D01*
X161618097Y-81000500D01*
X161851368Y-80963553D01*
X161852870Y-80963065D01*
X162075992Y-80890568D01*
X162286433Y-80783343D01*
X162477510Y-80644517D01*
X162644517Y-80477510D01*
X162783343Y-80286433D01*
X162890568Y-80075992D01*
X162963553Y-79851368D01*
X162981421Y-79738555D01*
X163000500Y-79618097D01*
X163000500Y-79381947D01*
X164500000Y-79381947D01*
X164500000Y-79618052D01*
X164536934Y-79851247D01*
X164609897Y-80075802D01*
X164717087Y-80286174D01*
X164777338Y-80369104D01*
X164777340Y-80369105D01*
X165476212Y-79670233D01*
X165487482Y-79712292D01*
X165559890Y-79837708D01*
X165662292Y-79940110D01*
X165787708Y-80012518D01*
X165829765Y-80023787D01*
X165130893Y-80722658D01*
X165213828Y-80782914D01*
X165424197Y-80890102D01*
X165648752Y-80963065D01*
X165648751Y-80963065D01*
X165881948Y-81000000D01*
X166118052Y-81000000D01*
X166351247Y-80963065D01*
X166575802Y-80890102D01*
X166786163Y-80782918D01*
X166786169Y-80782914D01*
X166869104Y-80722658D01*
X166869105Y-80722658D01*
X166170233Y-80023787D01*
X166212292Y-80012518D01*
X166337708Y-79940110D01*
X166440110Y-79837708D01*
X166512518Y-79712292D01*
X166523787Y-79670233D01*
X167222658Y-80369105D01*
X167222658Y-80369104D01*
X167282914Y-80286169D01*
X167282918Y-80286163D01*
X167390102Y-80075802D01*
X167463065Y-79851247D01*
X167500000Y-79618052D01*
X167500000Y-79381947D01*
X167463065Y-79148752D01*
X167390102Y-78924197D01*
X167282914Y-78713828D01*
X167222658Y-78630894D01*
X167222658Y-78630893D01*
X166523787Y-79329765D01*
X166512518Y-79287708D01*
X166440110Y-79162292D01*
X166337708Y-79059890D01*
X166212292Y-78987482D01*
X166170234Y-78976212D01*
X166869105Y-78277340D01*
X166869104Y-78277338D01*
X166786174Y-78217087D01*
X166575802Y-78109897D01*
X166351247Y-78036934D01*
X166351248Y-78036934D01*
X166118052Y-78000000D01*
X165881948Y-78000000D01*
X165648752Y-78036934D01*
X165424197Y-78109897D01*
X165213830Y-78217084D01*
X165130894Y-78277340D01*
X165829766Y-78976212D01*
X165787708Y-78987482D01*
X165662292Y-79059890D01*
X165559890Y-79162292D01*
X165487482Y-79287708D01*
X165476212Y-79329766D01*
X164777340Y-78630894D01*
X164717084Y-78713830D01*
X164609897Y-78924197D01*
X164536934Y-79148752D01*
X164500000Y-79381947D01*
X163000500Y-79381947D01*
X163000500Y-79381902D01*
X162963553Y-79148631D01*
X162890566Y-78924003D01*
X162802405Y-78750978D01*
X162783343Y-78713567D01*
X162644517Y-78522490D01*
X162477510Y-78355483D01*
X162286433Y-78216657D01*
X162269767Y-78208165D01*
X162075996Y-78109433D01*
X161851368Y-78036446D01*
X161618097Y-77999500D01*
X161618092Y-77999500D01*
X161381908Y-77999500D01*
X161381903Y-77999500D01*
X161148631Y-78036446D01*
X160924003Y-78109433D01*
X160713566Y-78216657D01*
X160630047Y-78277338D01*
X160522490Y-78355483D01*
X160522488Y-78355485D01*
X160522487Y-78355485D01*
X160355485Y-78522487D01*
X160355485Y-78522488D01*
X160355483Y-78522490D01*
X160277773Y-78629448D01*
X160224818Y-78702334D01*
X160169488Y-78744999D01*
X160099874Y-78750978D01*
X160038079Y-78718372D01*
X160003722Y-78657533D01*
X160000500Y-78629448D01*
X160000500Y-73870551D01*
X160020185Y-73803512D01*
X160072989Y-73757757D01*
X160142147Y-73747813D01*
X160205703Y-73776838D01*
X160224815Y-73797662D01*
X160355483Y-73977510D01*
X160522490Y-74144517D01*
X160713567Y-74283343D01*
X160812991Y-74334002D01*
X160924003Y-74390566D01*
X160924005Y-74390566D01*
X160924008Y-74390568D01*
X161044412Y-74429689D01*
X161148631Y-74463553D01*
X161381903Y-74500500D01*
X161381908Y-74500500D01*
X161618097Y-74500500D01*
X161851368Y-74463553D01*
X161852870Y-74463065D01*
X162075992Y-74390568D01*
X162286433Y-74283343D01*
X162477510Y-74144517D01*
X162644517Y-73977510D01*
X162783343Y-73786433D01*
X162890568Y-73575992D01*
X162963553Y-73351368D01*
X162974429Y-73282700D01*
X163000500Y-73118097D01*
X163000500Y-72881947D01*
X164500000Y-72881947D01*
X164500000Y-73118052D01*
X164536934Y-73351247D01*
X164609897Y-73575802D01*
X164717087Y-73786174D01*
X164777338Y-73869104D01*
X164777340Y-73869105D01*
X165476212Y-73170233D01*
X165487482Y-73212292D01*
X165559890Y-73337708D01*
X165662292Y-73440110D01*
X165787708Y-73512518D01*
X165829765Y-73523787D01*
X165130893Y-74222658D01*
X165213828Y-74282914D01*
X165424197Y-74390102D01*
X165648752Y-74463065D01*
X165648751Y-74463065D01*
X165881948Y-74500000D01*
X166118052Y-74500000D01*
X166351247Y-74463065D01*
X166575802Y-74390102D01*
X166786163Y-74282918D01*
X166786169Y-74282914D01*
X166869104Y-74222658D01*
X166869105Y-74222658D01*
X166170233Y-73523787D01*
X166212292Y-73512518D01*
X166337708Y-73440110D01*
X166440110Y-73337708D01*
X166512518Y-73212292D01*
X166523787Y-73170233D01*
X167222658Y-73869105D01*
X167222658Y-73869104D01*
X167282914Y-73786169D01*
X167282918Y-73786163D01*
X167390102Y-73575802D01*
X167463064Y-73351250D01*
X167463066Y-73351245D01*
X167500000Y-73118052D01*
X167500000Y-72881947D01*
X167463065Y-72648752D01*
X167390102Y-72424197D01*
X167282914Y-72213828D01*
X167222658Y-72130894D01*
X167222658Y-72130893D01*
X166523787Y-72829765D01*
X166512518Y-72787708D01*
X166440110Y-72662292D01*
X166337708Y-72559890D01*
X166212292Y-72487482D01*
X166170234Y-72476212D01*
X166869105Y-71777340D01*
X166869104Y-71777338D01*
X166786174Y-71717087D01*
X166575802Y-71609897D01*
X166351247Y-71536934D01*
X166351248Y-71536934D01*
X166118052Y-71500000D01*
X165881948Y-71500000D01*
X165648752Y-71536934D01*
X165424197Y-71609897D01*
X165213830Y-71717084D01*
X165130894Y-71777340D01*
X165829766Y-72476212D01*
X165787708Y-72487482D01*
X165662292Y-72559890D01*
X165559890Y-72662292D01*
X165487482Y-72787708D01*
X165476212Y-72829766D01*
X164777340Y-72130894D01*
X164717084Y-72213830D01*
X164609897Y-72424197D01*
X164536934Y-72648752D01*
X164500000Y-72881947D01*
X163000500Y-72881947D01*
X163000500Y-72881902D01*
X162963553Y-72648631D01*
X162890566Y-72424003D01*
X162799358Y-72244999D01*
X162783343Y-72213567D01*
X162644517Y-72022490D01*
X162477510Y-71855483D01*
X162286433Y-71716657D01*
X162263074Y-71704755D01*
X162075996Y-71609433D01*
X161851368Y-71536446D01*
X161618097Y-71499500D01*
X161618092Y-71499500D01*
X161381908Y-71499500D01*
X161381903Y-71499500D01*
X161148631Y-71536446D01*
X160924003Y-71609433D01*
X160713566Y-71716657D01*
X160642913Y-71767990D01*
X160522490Y-71855483D01*
X160522488Y-71855485D01*
X160522487Y-71855485D01*
X160355485Y-72022487D01*
X160355485Y-72022488D01*
X160355483Y-72022490D01*
X160316564Y-72076057D01*
X160224818Y-72202334D01*
X160169488Y-72244999D01*
X160099874Y-72250978D01*
X160038079Y-72218372D01*
X160003722Y-72157533D01*
X160000500Y-72129448D01*
X160000500Y-56003051D01*
X160000649Y-55996966D01*
X160006942Y-55868872D01*
X161499500Y-55868872D01*
X161499500Y-56131127D01*
X161525123Y-56325742D01*
X161533730Y-56391116D01*
X161601579Y-56644334D01*
X161601602Y-56644418D01*
X161601605Y-56644428D01*
X161701953Y-56886690D01*
X161701958Y-56886700D01*
X161833075Y-57113803D01*
X161992718Y-57321851D01*
X161992726Y-57321860D01*
X162178140Y-57507274D01*
X162178148Y-57507281D01*
X162386196Y-57666924D01*
X162613299Y-57798041D01*
X162613309Y-57798046D01*
X162855571Y-57898394D01*
X162855581Y-57898398D01*
X163108884Y-57966270D01*
X163368880Y-58000500D01*
X163368887Y-58000500D01*
X163631113Y-58000500D01*
X163631120Y-58000500D01*
X163891116Y-57966270D01*
X164144419Y-57898398D01*
X164386697Y-57798043D01*
X164613803Y-57666924D01*
X164821851Y-57507282D01*
X164821855Y-57507277D01*
X164821860Y-57507274D01*
X165007274Y-57321860D01*
X165007277Y-57321855D01*
X165007282Y-57321851D01*
X165166924Y-57113803D01*
X165298043Y-56886697D01*
X165398398Y-56644419D01*
X165466270Y-56391116D01*
X165500500Y-56131120D01*
X165500500Y-55868880D01*
X165466270Y-55608884D01*
X165398398Y-55355581D01*
X165311977Y-55146942D01*
X165298046Y-55113309D01*
X165298041Y-55113299D01*
X165166924Y-54886196D01*
X165007281Y-54678148D01*
X165007274Y-54678140D01*
X164821860Y-54492726D01*
X164821851Y-54492718D01*
X164613803Y-54333075D01*
X164386700Y-54201958D01*
X164386690Y-54201953D01*
X164144428Y-54101605D01*
X164144421Y-54101603D01*
X164144419Y-54101602D01*
X163891116Y-54033730D01*
X163833339Y-54026123D01*
X163631127Y-53999500D01*
X163631120Y-53999500D01*
X163368880Y-53999500D01*
X163368872Y-53999500D01*
X163137772Y-54029926D01*
X163108884Y-54033730D01*
X162855581Y-54101602D01*
X162855571Y-54101605D01*
X162613309Y-54201953D01*
X162613299Y-54201958D01*
X162386196Y-54333075D01*
X162178148Y-54492718D01*
X161992718Y-54678148D01*
X161833075Y-54886196D01*
X161701958Y-55113299D01*
X161701953Y-55113309D01*
X161601605Y-55355571D01*
X161601602Y-55355581D01*
X161533730Y-55608885D01*
X161499500Y-55868872D01*
X160006942Y-55868872D01*
X160007440Y-55858736D01*
X160007440Y-55858735D01*
X160017052Y-55663072D01*
X160018245Y-55650962D01*
X160022245Y-55623995D01*
X160066849Y-55323296D01*
X160069218Y-55311385D01*
X160149710Y-54990043D01*
X160153240Y-54978411D01*
X160186235Y-54886196D01*
X160264835Y-54666525D01*
X160269476Y-54655318D01*
X160411124Y-54355828D01*
X160416840Y-54345136D01*
X160587145Y-54060998D01*
X160593888Y-54050905D01*
X160791232Y-53784818D01*
X160798935Y-53775433D01*
X161021405Y-53529975D01*
X161029975Y-53521405D01*
X161275433Y-53298935D01*
X161284818Y-53291232D01*
X161550905Y-53093888D01*
X161560998Y-53087145D01*
X161845136Y-52916840D01*
X161855828Y-52911124D01*
X162155318Y-52769476D01*
X162166525Y-52764835D01*
X162478412Y-52653239D01*
X162490043Y-52649710D01*
X162811385Y-52569218D01*
X162823296Y-52566849D01*
X163150962Y-52518244D01*
X163163068Y-52517052D01*
X163496967Y-52500648D01*
X163503051Y-52500500D01*
X163565892Y-52500500D01*
X167876000Y-52500500D01*
X167943039Y-52520185D01*
G37*
%TD.AperFunction*%
%TD*%
M02*
