%TF.GenerationSoftware,KiCad,Pcbnew,9.0.2+dfsg-1*%
%TF.CreationDate,2025-07-19T12:09:05+01:00*%
%TF.ProjectId,makita_aws_rx,6d616b69-7461-45f6-9177-735f72782e6b,rev?*%
%TF.SameCoordinates,Original*%
%TF.FileFunction,Copper,L1,Top*%
%TF.FilePolarity,Positive*%
%FSLAX46Y46*%
G04 Gerber Fmt 4.6, Leading zero omitted, Abs format (unit mm)*
G04 Created by KiCad (PCBNEW 9.0.2+dfsg-1) date 2025-07-19 12:09:05*
%MOMM*%
%LPD*%
G01*
G04 APERTURE LIST*
G04 Aperture macros list*
%AMRoundRect*
0 Rectangle with rounded corners*
0 $1 Rounding radius*
0 $2 $3 $4 $5 $6 $7 $8 $9 X,Y pos of 4 corners*
0 Add a 4 corners polygon primitive as box body*
4,1,4,$2,$3,$4,$5,$6,$7,$8,$9,$2,$3,0*
0 Add four circle primitives for the rounded corners*
1,1,$1+$1,$2,$3*
1,1,$1+$1,$4,$5*
1,1,$1+$1,$6,$7*
1,1,$1+$1,$8,$9*
0 Add four rect primitives between the rounded corners*
20,1,$1+$1,$2,$3,$4,$5,0*
20,1,$1+$1,$4,$5,$6,$7,0*
20,1,$1+$1,$6,$7,$8,$9,0*
20,1,$1+$1,$8,$9,$2,$3,0*%
%AMFreePoly0*
4,1,37,0.603843,0.796157,0.639018,0.796157,0.711114,0.766294,0.766294,0.711114,0.796157,0.639018,0.796157,0.603843,0.800000,0.600000,0.800000,-0.600000,0.796157,-0.603843,0.796157,-0.639018,0.766294,-0.711114,0.711114,-0.766294,0.639018,-0.796157,0.603843,-0.796157,0.600000,-0.800000,0.000000,-0.800000,0.000000,-0.796148,-0.078414,-0.796148,-0.232228,-0.765552,-0.377117,-0.705537,
-0.507515,-0.618408,-0.618408,-0.507515,-0.705537,-0.377117,-0.765552,-0.232228,-0.796148,-0.078414,-0.796148,0.078414,-0.765552,0.232228,-0.705537,0.377117,-0.618408,0.507515,-0.507515,0.618408,-0.377117,0.705537,-0.232228,0.765552,-0.078414,0.796148,0.000000,0.796148,0.000000,0.800000,0.600000,0.800000,0.603843,0.796157,0.603843,0.796157,$1*%
%AMFreePoly1*
4,1,37,0.000000,0.796148,0.078414,0.796148,0.232228,0.765552,0.377117,0.705537,0.507515,0.618408,0.618408,0.507515,0.705537,0.377117,0.765552,0.232228,0.796148,0.078414,0.796148,-0.078414,0.765552,-0.232228,0.705537,-0.377117,0.618408,-0.507515,0.507515,-0.618408,0.377117,-0.705537,0.232228,-0.765552,0.078414,-0.796148,0.000000,-0.796148,0.000000,-0.800000,-0.600000,-0.800000,
-0.603843,-0.796157,-0.639018,-0.796157,-0.711114,-0.766294,-0.766294,-0.711114,-0.796157,-0.639018,-0.796157,-0.603843,-0.800000,-0.600000,-0.800000,0.600000,-0.796157,0.603843,-0.796157,0.639018,-0.766294,0.711114,-0.711114,0.766294,-0.639018,0.796157,-0.603843,0.796157,-0.600000,0.800000,0.000000,0.800000,0.000000,0.796148,0.000000,0.796148,$1*%
G04 Aperture macros list end*
%TA.AperFunction,ComponentPad*%
%ADD10RoundRect,0.250000X0.825000X0.825000X-0.825000X0.825000X-0.825000X-0.825000X0.825000X-0.825000X0*%
%TD*%
%TA.AperFunction,ComponentPad*%
%ADD11C,2.150000*%
%TD*%
%TA.AperFunction,ComponentPad*%
%ADD12C,1.600000*%
%TD*%
%TA.AperFunction,ComponentPad*%
%ADD13R,1.050000X1.500000*%
%TD*%
%TA.AperFunction,ComponentPad*%
%ADD14O,1.050000X1.500000*%
%TD*%
%TA.AperFunction,ComponentPad*%
%ADD15RoundRect,0.250001X-1.149999X-1.149999X1.149999X-1.149999X1.149999X1.149999X-1.149999X1.149999X0*%
%TD*%
%TA.AperFunction,ComponentPad*%
%ADD16C,2.800000*%
%TD*%
%TA.AperFunction,ComponentPad*%
%ADD17RoundRect,0.250000X-0.825000X-0.825000X0.825000X-0.825000X0.825000X0.825000X-0.825000X0.825000X0*%
%TD*%
%TA.AperFunction,ComponentPad*%
%ADD18RoundRect,0.200000X0.600000X0.600000X-0.600000X0.600000X-0.600000X-0.600000X0.600000X-0.600000X0*%
%TD*%
%TA.AperFunction,ComponentPad*%
%ADD19FreePoly0,180.000000*%
%TD*%
%TA.AperFunction,ComponentPad*%
%ADD20FreePoly1,180.000000*%
%TD*%
%TA.AperFunction,ComponentPad*%
%ADD21R,2.500000X2.500000*%
%TD*%
%TA.AperFunction,ComponentPad*%
%ADD22O,2.500000X2.500000*%
%TD*%
%TA.AperFunction,ComponentPad*%
%ADD23R,2.000000X1.700000*%
%TD*%
%TA.AperFunction,ComponentPad*%
%ADD24O,2.000000X1.700000*%
%TD*%
%TA.AperFunction,ComponentPad*%
%ADD25C,2.000000*%
%TD*%
%TA.AperFunction,Conductor*%
%ADD26C,1.000000*%
%TD*%
%TA.AperFunction,Conductor*%
%ADD27C,0.500000*%
%TD*%
%TA.AperFunction,Conductor*%
%ADD28C,4.000000*%
%TD*%
G04 APERTURE END LIST*
D10*
%TO.P,D1,1,K*%
%TO.N,Net-(D1-K)*%
X198000000Y-55500000D03*
D11*
%TO.P,D1,2,A*%
%TO.N,/LED*%
X193400000Y-55500000D03*
%TD*%
D12*
%TO.P,R2,1*%
%TO.N,/COIL*%
X198500000Y-70500000D03*
%TO.P,R2,2*%
%TO.N,Net-(Q1-G)*%
X198500000Y-62880000D03*
%TD*%
D13*
%TO.P,Q1,1,S*%
%TO.N,GND*%
X213460000Y-58000000D03*
D14*
%TO.P,Q1,2,G*%
%TO.N,Net-(Q1-G)*%
X214730000Y-58000000D03*
%TO.P,Q1,3,D*%
%TO.N,Net-(Q1-D)*%
X216000000Y-58000000D03*
%TD*%
D15*
%TO.P,J1,1,Pin_1*%
%TO.N,/MAINS_N*%
X194500000Y-109000000D03*
D16*
%TO.P,J1,2,Pin_2*%
%TO.N,/MAINS_E*%
X199500000Y-109000000D03*
%TO.P,J1,3,Pin_3*%
%TO.N,/MAINS_L_IN*%
X204500000Y-109000000D03*
%TD*%
D12*
%TO.P,R3,1*%
%TO.N,GND*%
X202000000Y-70500000D03*
%TO.P,R3,2*%
%TO.N,Net-(Q1-G)*%
X202000000Y-62880000D03*
%TD*%
%TO.P,R4,1*%
%TO.N,Net-(D1-K)*%
X205500000Y-62880000D03*
%TO.P,R4,2*%
%TO.N,GND*%
X205500000Y-70500000D03*
%TD*%
D17*
%TO.P,SW1,1,1*%
%TO.N,GND*%
X202200000Y-55500000D03*
D11*
%TO.P,SW1,2,2*%
%TO.N,/SW_PUSH*%
X206800000Y-55500000D03*
%TD*%
D18*
%TO.P,A1,1,GPIO0*%
%TO.N,unconnected-(A1-GPIO0-Pad1)*%
X188280000Y-103940000D03*
D12*
%TO.P,A1,2,GPIO1*%
%TO.N,unconnected-(A1-GPIO1-Pad2)*%
X188280000Y-101400000D03*
D19*
%TO.P,A1,3,GND*%
%TO.N,GND*%
X188280000Y-98860000D03*
D12*
%TO.P,A1,4,GPIO2*%
%TO.N,unconnected-(A1-GPIO2-Pad4)*%
X188280000Y-96320000D03*
%TO.P,A1,5,GPIO3*%
%TO.N,unconnected-(A1-GPIO3-Pad5)*%
X188280000Y-93780000D03*
%TO.P,A1,6,GPIO4*%
%TO.N,unconnected-(A1-GPIO4-Pad6)*%
X188280000Y-91240000D03*
%TO.P,A1,7,GPIO5*%
%TO.N,unconnected-(A1-GPIO5-Pad7)*%
X188280000Y-88700000D03*
D19*
%TO.P,A1,8,GND*%
%TO.N,GND*%
X188280000Y-86160000D03*
D12*
%TO.P,A1,9,GPIO6*%
%TO.N,unconnected-(A1-GPIO6-Pad9)*%
X188280000Y-83620000D03*
%TO.P,A1,10,GPIO7*%
%TO.N,unconnected-(A1-GPIO7-Pad10)*%
X188280000Y-81080000D03*
%TO.P,A1,11,GPIO8*%
%TO.N,unconnected-(A1-GPIO8-Pad11)*%
X188280000Y-78540000D03*
%TO.P,A1,12,GPIO9*%
%TO.N,unconnected-(A1-GPIO9-Pad12)*%
X188280000Y-76000000D03*
D19*
%TO.P,A1,13,GND*%
%TO.N,GND*%
X188280000Y-73460000D03*
D12*
%TO.P,A1,14,GPIO10*%
%TO.N,/COIL*%
X188280000Y-70920000D03*
%TO.P,A1,15,GPIO11*%
%TO.N,unconnected-(A1-GPIO11-Pad15)*%
X188280000Y-68380000D03*
%TO.P,A1,16,GPIO12*%
%TO.N,unconnected-(A1-GPIO12-Pad16)*%
X188280000Y-65840000D03*
%TO.P,A1,17,GPIO13*%
%TO.N,unconnected-(A1-GPIO13-Pad17)*%
X188280000Y-63300000D03*
D19*
%TO.P,A1,18,GND*%
%TO.N,GND*%
X188280000Y-60760000D03*
D12*
%TO.P,A1,19,GPIO14*%
%TO.N,/SW_PUSH*%
X188280000Y-58220000D03*
%TO.P,A1,20,GPIO15*%
%TO.N,/LED*%
X188280000Y-55680000D03*
%TO.P,A1,21,GPIO16*%
%TO.N,unconnected-(A1-GPIO16-Pad21)*%
X170500000Y-55680000D03*
%TO.P,A1,22,GPIO17*%
%TO.N,unconnected-(A1-GPIO17-Pad22)*%
X170500000Y-58220000D03*
D20*
%TO.P,A1,23,GND*%
%TO.N,GND*%
X170500000Y-60760000D03*
D12*
%TO.P,A1,24,GPIO18*%
%TO.N,unconnected-(A1-GPIO18-Pad24)*%
X170500000Y-63300000D03*
%TO.P,A1,25,GPIO19*%
%TO.N,unconnected-(A1-GPIO19-Pad25)*%
X170500000Y-65840000D03*
%TO.P,A1,26,GPIO20*%
%TO.N,unconnected-(A1-GPIO20-Pad26)*%
X170500000Y-68380000D03*
%TO.P,A1,27,GPIO21*%
%TO.N,unconnected-(A1-GPIO21-Pad27)*%
X170500000Y-70920000D03*
D20*
%TO.P,A1,28,GND*%
%TO.N,GND*%
X170500000Y-73460000D03*
D12*
%TO.P,A1,29,GPIO22*%
%TO.N,unconnected-(A1-GPIO22-Pad29)*%
X170500000Y-76000000D03*
%TO.P,A1,30,RUN*%
%TO.N,/RUN*%
X170500000Y-78540000D03*
%TO.P,A1,31,GPIO26_ADC0*%
%TO.N,unconnected-(A1-GPIO26_ADC0-Pad31)*%
X170500000Y-81080000D03*
%TO.P,A1,32,GPIO27_ADC1*%
%TO.N,unconnected-(A1-GPIO27_ADC1-Pad32)*%
X170500000Y-83620000D03*
D20*
%TO.P,A1,33,AGND*%
%TO.N,GND*%
X170500000Y-86160000D03*
D12*
%TO.P,A1,34,GPIO28_ADC2*%
%TO.N,unconnected-(A1-GPIO28_ADC2-Pad34)*%
X170500000Y-88700000D03*
%TO.P,A1,35,ADC_VREF*%
%TO.N,unconnected-(A1-ADC_VREF-Pad35)*%
X170500000Y-91240000D03*
%TO.P,A1,36,3V3*%
%TO.N,unconnected-(A1-3V3-Pad36)*%
X170500000Y-93780000D03*
%TO.P,A1,37,3V3_EN*%
%TO.N,unconnected-(A1-3V3_EN-Pad37)*%
X170500000Y-96320000D03*
D20*
%TO.P,A1,38,GND*%
%TO.N,GND*%
X170500000Y-98860000D03*
D12*
%TO.P,A1,39,VSYS*%
%TO.N,+5V*%
X170500000Y-101400000D03*
%TO.P,A1,40,VBUS*%
%TO.N,unconnected-(A1-VBUS-Pad40)*%
X170500000Y-103940000D03*
%TD*%
D21*
%TO.P,K2,1*%
%TO.N,/MAINS_L_OUT*%
X200500000Y-94700000D03*
D22*
%TO.P,K2,2*%
%TO.N,Net-(Q1-D)*%
X206500000Y-92700000D03*
%TO.P,K2,3*%
%TO.N,/MAINS_L_IN*%
X206500000Y-80500000D03*
%TO.P,K2,4*%
%TO.N,unconnected-(K2-Pad4)*%
X194500000Y-80500000D03*
%TO.P,K2,5*%
%TO.N,+5V*%
X194500000Y-92700000D03*
%TD*%
D23*
%TO.P,PS1,1,AC/L*%
%TO.N,/MAINS_L_IN*%
X219500000Y-97000000D03*
D24*
%TO.P,PS1,2,AC/N*%
%TO.N,/MAINS_N*%
X224500000Y-97000000D03*
%TO.P,PS1,3,-Vout*%
%TO.N,GND*%
X214500000Y-67920000D03*
%TO.P,PS1,4,+Vout*%
%TO.N,+5V*%
X229500000Y-67920000D03*
%TD*%
D12*
%TO.P,R1,1*%
%TO.N,+5V*%
X195000000Y-62880000D03*
%TO.P,R1,2*%
%TO.N,/SW_PUSH*%
X195000000Y-70500000D03*
%TD*%
D15*
%TO.P,J2,1,Pin_1*%
%TO.N,/MAINS_N*%
X211500000Y-109000000D03*
D16*
%TO.P,J2,2,Pin_2*%
%TO.N,/MAINS_E*%
X216500000Y-109000000D03*
%TO.P,J2,3,Pin_3*%
%TO.N,/MAINS_L_OUT*%
X221500000Y-109000000D03*
%TD*%
D25*
%TO.P,SW3,1,1*%
%TO.N,GND*%
X166000000Y-73000000D03*
X166000000Y-79500000D03*
%TO.P,SW3,2,2*%
%TO.N,/RUN*%
X161500000Y-73000000D03*
X161500000Y-79500000D03*
%TD*%
D26*
%TO.N,+5V*%
X170500000Y-101400000D02*
X181400000Y-101400000D01*
X189500000Y-106000000D02*
X190500000Y-105000000D01*
X181400000Y-101400000D02*
X186000000Y-106000000D01*
X186000000Y-106000000D02*
X189500000Y-106000000D01*
X190500000Y-105000000D02*
X190500000Y-96700000D01*
X190500000Y-96700000D02*
X194500000Y-92700000D01*
%TO.N,Net-(Q1-D)*%
X206500000Y-92700000D02*
X200500000Y-86700000D01*
X209000000Y-67000000D02*
X216000000Y-60000000D01*
X200500000Y-86700000D02*
X200500000Y-75500000D01*
X203000000Y-73000000D02*
X206000000Y-73000000D01*
X200500000Y-75500000D02*
X203000000Y-73000000D01*
X216000000Y-60000000D02*
X216000000Y-58000000D01*
X206000000Y-73000000D02*
X209000000Y-70000000D01*
X209000000Y-70000000D02*
X209000000Y-67000000D01*
D27*
%TO.N,+5V*%
X194500000Y-92700000D02*
X195300000Y-92700000D01*
X195300000Y-92700000D02*
X199000000Y-89000000D01*
X199000000Y-89000000D02*
X199000000Y-72500000D01*
X199000000Y-72500000D02*
X200000000Y-71500000D01*
X200000000Y-71500000D02*
X200000000Y-69500000D01*
X200000000Y-69500000D02*
X195000000Y-64500000D01*
X195000000Y-64500000D02*
X195000000Y-62880000D01*
D28*
%TO.N,/MAINS_L_IN*%
X206500000Y-80500000D02*
X206500000Y-84000000D01*
X206500000Y-84000000D02*
X213000000Y-90500000D01*
X213000000Y-90500000D02*
X213000000Y-97000000D01*
X213000000Y-97000000D02*
X216500000Y-97000000D01*
D27*
%TO.N,/COIL*%
X188280000Y-70920000D02*
X190920000Y-70920000D01*
X198500000Y-71000000D02*
X198500000Y-70500000D01*
X190920000Y-70920000D02*
X192500000Y-72500000D01*
X192500000Y-72500000D02*
X197000000Y-72500000D01*
X197000000Y-72500000D02*
X198500000Y-71000000D01*
%TO.N,/SW_PUSH*%
X188280000Y-58220000D02*
X191220000Y-58220000D01*
X191220000Y-58220000D02*
X192500000Y-59500000D01*
X195000000Y-70500000D02*
X192500000Y-68000000D01*
X192500000Y-68000000D02*
X192500000Y-59500000D01*
X192500000Y-59500000D02*
X195500000Y-56500000D01*
X195500000Y-56500000D02*
X195500000Y-54000000D01*
X195500000Y-54000000D02*
X196500000Y-53000000D01*
X196500000Y-53000000D02*
X204300000Y-53000000D01*
X204300000Y-53000000D02*
X206800000Y-55500000D01*
%TO.N,/LED*%
X188280000Y-55680000D02*
X193220000Y-55680000D01*
X193220000Y-55680000D02*
X193400000Y-55500000D01*
D28*
%TO.N,/MAINS_E*%
X216500000Y-109000000D02*
X216500000Y-113500000D01*
X216500000Y-113500000D02*
X215500000Y-114500000D01*
X215500000Y-114500000D02*
X201000000Y-114500000D01*
X201000000Y-114500000D02*
X199500000Y-113000000D01*
X199500000Y-113000000D02*
X199500000Y-109000000D01*
%TO.N,/MAINS_N*%
X211500000Y-109000000D02*
X211500000Y-104500000D01*
X211500000Y-104500000D02*
X213000000Y-103000000D01*
X213000000Y-103000000D02*
X223000000Y-103000000D01*
X223000000Y-103000000D02*
X224500000Y-101500000D01*
X224500000Y-101500000D02*
X224500000Y-97000000D01*
%TO.N,/MAINS_L_IN*%
X204500000Y-109000000D02*
X204500000Y-102500000D01*
X204500000Y-102500000D02*
X210000000Y-97000000D01*
X210000000Y-97000000D02*
X216500000Y-97000000D01*
D27*
%TO.N,GND*%
X166460000Y-73460000D02*
X166000000Y-73000000D01*
X170500000Y-73460000D02*
X166460000Y-73460000D01*
X166000000Y-79500000D02*
X166000000Y-73000000D01*
%TO.N,/RUN*%
X167540000Y-81500000D02*
X170500000Y-78540000D01*
X161500000Y-79500000D02*
X163500000Y-81500000D01*
X161500000Y-73000000D02*
X161500000Y-79500000D01*
X163500000Y-81500000D02*
X167540000Y-81500000D01*
%TO.N,Net-(D1-K)*%
X205500000Y-61000000D02*
X203000000Y-58500000D01*
X203000000Y-58500000D02*
X201000000Y-58500000D01*
X205500000Y-62880000D02*
X205500000Y-61000000D01*
X201000000Y-58500000D02*
X198000000Y-55500000D01*
D28*
%TO.N,/MAINS_L_IN*%
X216500000Y-97000000D02*
X219500000Y-97000000D01*
D27*
%TO.N,Net-(Q1-G)*%
X208980000Y-65000000D02*
X214730000Y-59250000D01*
X202000000Y-62880000D02*
X204120000Y-65000000D01*
X214730000Y-59250000D02*
X214730000Y-58000000D01*
X198500000Y-62880000D02*
X202000000Y-62880000D01*
X204120000Y-65000000D02*
X208980000Y-65000000D01*
%TD*%
M02*
