M48
; DRILL file {KiCad 9.0.2+dfsg-1} date 2025-07-19T12:09:04+0100
; FORMAT={-:-/ absolute / metric / decimal}
; #@! TF.CreationDate,2025-07-19T12:09:04+01:00
; #@! TF.GenerationSoftware,Kicad,Pcbnew,9.0.2+dfsg-1
; #@! TF.FileFunction,Plated,1,2,PTH
FMAT,2
METRIC
; #@! TA.AperFunction,Plated,PTH,ComponentDrill
T1C0.750
; #@! TA.AperFunction,Plated,PTH,ComponentDrill
T2C0.800
; #@! TA.AperFunction,Plated,PTH,ComponentDrill
T3C1.000
; #@! TA.AperFunction,Plated,PTH,ComponentDrill
T4C1.100
; #@! TA.AperFunction,Plated,PTH,ComponentDrill
T5C1.150
; #@! TA.AperFunction,Plated,PTH,ComponentDrill
T6C1.300
; #@! TA.AperFunction,Plated,PTH,ComponentDrill
T7C1.400
%
G90
G05
T1
X213.46Y-58.0
X214.73Y-58.0
X216.0Y-58.0
T2
X195.0Y-62.88
X195.0Y-70.5
X198.5Y-62.88
X198.5Y-70.5
X202.0Y-62.88
X202.0Y-70.5
X205.5Y-62.88
X205.5Y-70.5
T3
X170.5Y-55.68
X170.5Y-58.22
X170.5Y-60.76
X170.5Y-63.3
X170.5Y-65.84
X170.5Y-68.38
X170.5Y-70.92
X170.5Y-73.46
X170.5Y-76.0
X170.5Y-78.54
X170.5Y-81.08
X170.5Y-83.62
X170.5Y-86.16
X170.5Y-88.7
X170.5Y-91.24
X170.5Y-93.78
X170.5Y-96.32
X170.5Y-98.86
X170.5Y-101.4
X170.5Y-103.94
X188.28Y-55.68
X188.28Y-58.22
X188.28Y-60.76
X188.28Y-63.3
X188.28Y-65.84
X188.28Y-68.38
X188.28Y-70.92
X188.28Y-73.46
X188.28Y-76.0
X188.28Y-78.54
X188.28Y-81.08
X188.28Y-83.62
X188.28Y-86.16
X188.28Y-88.7
X188.28Y-91.24
X188.28Y-93.78
X188.28Y-96.32
X188.28Y-98.86
X188.28Y-101.4
X188.28Y-103.94
X214.5Y-67.92
X219.5Y-97.0
X224.5Y-97.0
X229.5Y-67.92
T4
X161.5Y-73.0
X161.5Y-79.5
X166.0Y-73.0
X166.0Y-79.5
T5
X193.4Y-55.5
X198.0Y-55.5
X202.2Y-55.5
X206.8Y-55.5
T6
X194.5Y-80.5
X194.5Y-92.7
X200.5Y-94.7
X206.5Y-80.5
X206.5Y-92.7
T7
X194.5Y-109.0
X199.5Y-109.0
X204.5Y-109.0
X211.5Y-109.0
X216.5Y-109.0
X221.5Y-109.0
M30
